<?xml version="1.0" encoding="UTF-8"?>
<svg xmlns="http://www.w3.org/2000/svg" viewBox="0 0 1920 3600.04">
  <defs>
    <style>
      .cls-1 {
        fill: #fbfcf7;
      }

      .cls-2 {
        fill: #e9f2d5;
      }

      .cls-3 {
        fill: #689dc8;
        opacity: .72;
      }
    </style>
  </defs>
  <g id="Layer_1" data-name="Layer 1">
    <g>
      <rect class="cls-2" x="-32.68" y="-45.21" width="1963.56" height="3712.8"/>
      <path d="M1930.38-44.71v3711.8H-32.18V-44.71h1962.56M1931.38-45.71H-33.18v3713.8h1964.56V-45.71h0Z"/>
    </g>
  </g>
  <g id="Layer_2" data-name="Layer 2">
    <g>
      <path class="cls-3" d="M1920,2995.83c-62,5.1-95.25.37-142.17-11.04s-81.86-37.68-107.88-78.36c-37.09-57.99-49.05-123.13-40.27-191.41,8.78-68.28,10.92-140.85,13.81-209.64,1.1-26.29-2.65-53.54-15.54-76.48-17.57-31.26-28.98-40.41-57.93-60.63-28.11-19.63-59.39-34.63-83.74-58.79-49.04-48.66-79.71-113.17-91.13-180.98-7.63-45.31-2.01-91.87-48.77-117.54-95.98-52.68-170.24,63.8-104.47,139.86,52.72,60.97,117.95,78.85,138.43,171.2,50.69,228.53-255.82,339.22-368.45,131.36-17.61-32.49-46.8-124.42-83.08-134.62-24.91-7-32.05,19.88-35.83,38.63-14.44,71.8-5.34,114.36-52.83,178.95-163.83,222.83-513.48,42.55-424.45-224.52,27.32-81.95,78.26-103.14,135.68-155.83,16.13-14.8,44.07-46.82,29.46-69.61-11.7-18.27-70.38-44.77-91.6-58.72-147.74-97.07-119.92-316.81,50.78-366.48,87.43-25.44,168.58,15.62,232.18,72.9,49.65,44.71,136.12,163.57,212.82,117.33,23.94-14.43,20.5-33.35,4.74-53.56-29.54-37.88-107.01-59.88-149.14-89.72-154.71-109.59-71.85-302.2,114.46-279,51.71,6.44,97.39,34.73,142.54,58.33.05,6.39-6.18,9.64-9.48,14.13-18.75,25.53-32.63,51.92-39.97,83.02-47.83-20.58-91.47-57.45-147.23-43.74-51.98,12.78-27.38,54.33,2.27,76.37,39.07,29.03,91.79,41.67,132.45,72.79,174.45,133.53,19.24,342.62-166.11,265.2-32.67-13.65-61.94-35.27-88.55-58.3-59.04-51.12-136.6-167.5-226.45-122.99-6.3,3.12-23.77,14.43-27.4,19.56-1.71,2.42.32-.59,0,0-10.53,14.09-24.87,49.1-23.68,66.03,1.02,14.5,5.31,25.88,12.15,38.26,24.92,45.1,89.36,61.93,128.32,95.5,76.35,65.79,63.37,161.06-1.54,229.43-43.15,45.44-105.24,68.67-123.73,133.7-37.14,130.68,118.91,226.8,218.23,133.26,49.18-46.32,37.54-99.17,50.62-158.11,32.07-144.53,181.32-161.02,263.2-46.19,34.15,47.89,48.78,138.95,103.66,161.73,90.19,37.44,158.61-67.89,99.09-138.02-55.73-65.66-128.78-84.32-144.69-186.17-27.07-173.31,147.18-297.84,300.19-202.88,121.04,75.12,65.43,178.76,125.73,274.13,12.66,20.02,31.99,41.76,51.65,55.82,17.68,12.64,40.14,33.72,57.72,44.68,37.8,23.58,61.22,44.67,85.14,95.51,25.62,54.44,15.55,127.53,10.06,187.44-5.49,59.91-5.76,95.31-10.88,155.26-2.32,27.12-2.82,58.8,5.23,84.8,11.77,37.98,32.25,64.76,69.26,79.29s80.17,12.82,117.11-1.89"/>
      <path class="cls-3" d="M1349.75,1612.9c-5.81,8.48-21.05,1.94-23.54.6-14.23-7.64-43.18-19.16-57.36-23.95-8.94-3.02-14.09,2.05-8.37,8.38,4.2,4.64,41.65,18.76,51.35,24.72,15.01,9.22,11.24,25.03-8.14,21.35-18.71-4.25-31.2-14.3-48.85-19.25-8.21-2.3-11.04,1.23-6.78,8.59,13.73,5.46,26.87,11.28,40.73,16.76,4.12,1.63,6.44,3.06,7.08,3.54h0c7.94,6.1,4.88,19.73-6.74,19.66-9.63-.06-50.12-19.57-55.19-14.36.38,2.21-.8,7.47.21,8.66,1.24,1.45,24.65,10.29,29.03,13.05.11.53-.36.22.11.53,1.56,1.02,8.65,10.93-2.8,11.39-7.57.3-20.05.01-28.31,0l-12.48-2.77c-1.88-.42-3.01-2.33-2.48-4.18,2.38-8.28,4.49-15.87-1.23-23.75-4.29-5.92-12.75-5.61-14.79-9.98-2.59-5.55.79-13.43-5.23-19.54-5.33-5.41-19.56-6.33-20.3-7.12-.35-.37-.14-6.9-1.44-10.06-2.49-6.03-11.27-11.9-17.77-12.46-12.85-1.1-20.96,11.71-22.46,11.72-.99,0-7.6-6.16-10.24-7.17-15.05-5.73-23.49,6.34-28.44,5.41-3.77-.71-25.98-27.7-25.81-34.01.33-12.76,15.72-43.56,23.21-54.75,2.25-3.36,12.51-17.19,14.91-18.7,9.45-5.96,33.07,5.48,44.93,3.36,3.1,2.88-18.49,30.17-19.4,36.39-1.68,11.53,6.31,22.42,18.37,21.89,9.95-.44,44.76-27.7,56.41-33.87,3.41-1.81,6.67-3.79,10.8-3.18,42.46,21.45,83.88,44.65,126.68,65.46h0c1.2,1.22,10.34,6.19,4.33,17.65"/>
      <path class="cls-1" d="M1376.62,1562.79c-.69,1.21-14.44,16.68-16.17,18.3-1.42,1.33-9.1,7.19-10.35,6.96-1.91-.91-3.04-3.26-4.83-4.14-34.84-17.2-68.21-37.58-103.02-54.43-16.45-7.96-21.52-14.31-39.57-5.31-12.79,6.38-37.38,27.85-48.68,31-5.79,1.62-10.4.02-10.16-6.8.2-5.68,27.1-44.98,33.06-48.6,8.27-5.03,47.94-16.42,58.14-17.55,20.9-2.32,43.78,5.78,63.45,5.21,7.17-.21,18.14-7.73,22.99-7.23,7.3.75,33.36,30.48,38.52,37.69,5.63,7.87,19.77,30.57,18.98,39.18-.25,2.66-1.2,3.73-2.34,5.73Z"/>
      <path class="cls-1" d="M1150.31,1613.3c9.93-2.23,18.06,5.28,15.27,15.2-3.85,13.73-22.94,35-28.14,49.81-8.27,9.05-23.72.56-18.59-15.06,1.23-3.75,22.62-42.52,25.11-45.64,1.86-2.33,3.33-3.63,6.34-4.31Z"/>
      <path class="cls-1" d="M1149.41,1688.66c-1.12-1.93-.73-10.05,0-12.55.56-1.93,18.62-33.09,20.04-34.8,9.45-11.41,25.11-4.06,21.71,11.04-.41,1.84-16.34,30.21-18.32,33.05-3.24,4.65-9.08,9.87-14.98,8.21-.74-.21-8.2-4.53-8.45-4.95Z"/>
      <path class="cls-1" d="M1105.24,1618.7c6.78-6.52,22.52-2.12,20.76,10.9-.41,3.02-13.37,26.06-15.79,28.56-7.76,8.01-21.56,1.18-19.49-12.37.23-1.52,13.42-26.02,14.52-27.09Z"/>
      <path class="cls-1" d="M1210.62,1669.89c1.82,3.11-8.67,23.32-11.25,26.12-6.83,7.4-18.62,2.25-18.16-5.8.3-5.28,12.66-26.23,20.07-25.94.98.04,9.07,5.15,9.34,5.62Z"/>
      <path class="cls-1" d="M1463.22,1041.45c-42.13-93.09-151.11-165.83-251.05-108.82-75.07,42.83-72.41,117.74-89.42,190.13-2.94,12.51-20.1,58.89-36.76,55.41-24.63-5.14-49.73-69.18-62.23-90.06-88.58-147.94-238.2-90.67-309.12,37.39-25.08,45.28-52.35,137.86-112.77,143.41-53.07,4.88-87.99-34.63-79.85-86.93,5.72-36.74,53.88-82.12,76.47-111.51,75.95-98.82,34.98-188.23-88.77-196.03-59.31-3.74-157.17-1.38-201.83-46.61h0c-94.65-114.82,314.08-344.29,307.68-468.39-2.64-51.22-33.17-79.16-63.77-96.08C407.27,183.45,81.22,285.09,0,301.63v120.56c27.69-9.84,447.23-129.91,486.34-59.34,29.46,53.15-200.12,220.46-224.33,251.35-108.74,138.74-129.52,237.4,37.32,326.86l.03-.32c2.47,1.39-1.93-.42-.03.32,55.79,21.86,122.57,31.8,178.94,29.09,23.1-1.11,78.82-2.59,51.17,35.25-25.12,34.38-65.64,55.14-90.67,95.11-103.74,165.63,90.93,356.05,253.23,249.69,83.29-54.59,85.44-136.98,140.26-202.98,14.23-17.13,45.59-44.88,69.16-34.07,23.67,10.85,56.94,92.36,79.29,118.87,72.84,86.41,179.48,69.95,228.93-29.43,20.87-41.94,20.82-76.77,31.16-121,8.17-34.95,17.46-66.61,61.14-55.8,57.13,14.14,79.63,105.95,87.89,156.27,14.26,86.81,7.6,190.69-48.31,262.11-5.58,7.13-14.06,12.24-17.84,20.77-.36.81-.16,1.75.51,2.32,18.35,15.65,35.69,33.18,49.17,53.29,5.42,8.08,9.45,18.41,14.62,26.01,3.61,5.31,11.71-3.37,15.43-6.88,123.04-116.14,125.63-352.74,59.8-498.22Z"/>
    </g>
  </g>
</svg>