<?xml version="1.0" encoding="UTF-8"?>
<svg id="Layer_1" data-name="Layer 1" xmlns="http://www.w3.org/2000/svg" viewBox="0 0 44 38">
  <defs>
    <style>
      .cls-1 {
        fill: #fffaf4;
      }

      .cls-2 {
        fill: #34bfb1;
      }
    </style>
  </defs>
  <path class="cls-2" d="M39.97,11.76h-4.39c.6.8.96,1.8.96,2.89v9.82c0,2.6-2.04,4.72-4.53,4.72h-11.07c.59,1.57,2.05,2.69,3.76,2.69h15.27c2.22,0,4.03-1.89,4.03-4.2v-11.71c0-2.31-1.82-4.2-4.03-4.2h0Z"/>
  <path class="cls-1" d="M34.86,21.82V6.83c0-3.76-2.95-6.83-6.56-6.83H6.56C2.95,0,0,3.07,0,6.83v14.99c0,3.57,2.66,6.52,6.02,6.8,0,0-.97,7.87.24,7.87s9.15-7.84,9.15-7.84h12.89c3.61,0,6.56-3.07,6.56-6.83h0ZM14.25,25.61l-.85.83s-1.68,1.65-3.56,3.4c-.41.38-.79.72-1.13,1.04.09-1.06.19-1.85.19-1.86l.39-3.15-3.04-.26c-1.87-.16-3.34-1.82-3.34-3.78V6.83c0-1.01.38-1.95,1.07-2.67.69-.72,1.6-1.12,2.57-1.12h21.75c.97,0,1.88.39,2.57,1.12.69.72,1.07,1.67,1.07,2.67v14.99c0,1.01-.38,1.95-1.07,2.67-.69.72-1.6,1.12-2.57,1.12h-14.05,0Z"/>
  <path class="cls-1" d="M37.27,9.44c-.79-.17-1.56.36-1.72,1.18-.16.82.35,1.62,1.13,1.79,1.89.41,3.27,2.16,3.27,4.18v8.96c0,2.11-1.51,3.92-3.51,4.22l-1.59.24.38,1.62c.1.41.19.85.28,1.28-.86-.83-1.81-1.78-2.68-2.67l-.42-.44h-8.15c-1.06,0-1.78-.07-2.29-.44-.67-.47-1.58-.29-2.03.4-.45.69-.28,1.64.38,2.11,1.25.89,2.69.96,3.94.96h6.96c.49.49,1.33,1.33,2.19,2.17.79.77,1.44,1.37,1.93,1.82.97.86,1.42,1.17,2.02,1.17.47,0,.91-.22,1.21-.61.49-.65.5-1.47.02-3.98-.07-.36-.14-.72-.21-1.04,2.64-1.07,4.49-3.76,4.49-6.81v-8.96c0-3.44-2.35-6.45-5.6-7.15Z"/>
</svg>