<?xml version="1.0" encoding="UTF-8"?>
<svg id="Layer_1" data-name="Layer 1" xmlns="http://www.w3.org/2000/svg" viewBox="0 0 375.54 384.95">
  <defs>
    <style>
      .cls-1 {
        fill: #45484c;
      }

      .cls-2 {
        fill: #6adecf;
      }
    </style>
  </defs>
  <g>
    <path d="M12.3,167.8c-1.58-.26-2.68-1.79-2.42-3.37s1.79-2.68,3.37-2.42c1.58.26,2.68,1.79,2.42,3.37-.26,1.58-1.79,2.68-3.37,2.42Z"/>
    <path d="M11.8,148.7c-9.41-3.22-13.78-11.57-10.95-19.85,1.57-4.58,3.73-7.32,5.42-8.99l5.71,1.96-.09.25c-5.48.66-8.93,2.48-10.49,7.06-1.91,5.59,3.35,11.33,12.13,14.34,8.53,2.92,16.25,2.04,18.31-3.97,1.14-3.32.4-6.11-2.04-6.94l-4.66-1.6c-3.11-1.06-4.81-1.46-5.81.92l-.25-.09,2.96-8.66.25.09c-.26,1.32,1.35,1.96,4.46,3.03l6.18,2.12c.79,2.9.94,7.13-.56,11.5-2.99,8.74-11.25,12.02-20.58,8.82Z"/>
    <path d="M22.05,104.28l3.65,3.02-.12.24c-1.27.55-2.38,1.59-2.86,2.54-.4.79-.48,1.85.31,3.54l12.31,6.17c2.54,1.27,3.95,1.83,4.77.2l.24.12-3.82,7.62-.24-.12c.82-1.63-.47-2.42-3.01-3.7l-11.36-5.69c-2.54-1.27-3.59-.96-4.75.15l-.24-.12,1.26-6.87.08-.16,4.25,2.13c-1.66-2.92-2.63-5.55-1.58-7.65.26-.52.6-.99,1.11-1.43Z"/>
    <path d="M49.17,94.42c2.37,1.57,3.83,1.62,5.1.65l.22.15-1.94,5.69-.1.15-4.16-1.68c.73,3.25.83,6.72-.78,9.17-1.96,2.97-5.21,3.38-8.92.93l-10.01-6.6c-2.37-1.57-3.73-1.45-5-.48l-.22-.15,3.22-6.02.1-.15,13.35,8.81c2.6,1.71,4.92,2.39,6.65-.24.9-1.37,1.39-3.39,1.32-5.46l-11.83-7.8c-2.37-1.57-3.73-1.45-5-.48l-.22-.15,3.22-6.02.1-.15,14.91,9.83Z"/>
    <path d="M61.18,70.85c5.74,5.11,6.36,11.96,2.08,16.77-1.15,1.29-2.52,2.16-3.87,2.68l4.55,4.04c2.12,1.89,3.34,2.79,4.55,1.43l.2.18-5.67,6.37-.2-.18c1.21-1.36.17-2.46-1.95-4.35l-17.06-15.17c-2.12-1.89-3.22-1.86-4.62-1.08l-.2-.18,3-6.31.12-.13,2.92,2.6c-.57-2.7-.39-5.58,1.62-7.83,3.36-3.78,9.36-3.44,14.54,1.16ZM58.93,75.51c-4.41-3.92-9.27-5.75-12.04-2.63-1.27,1.43-1.5,3.3-1.34,5.11l9.09,8.09c2.99,2.66,6.2,3.32,8.27.99,2.75-3.09.17-7.87-3.98-11.56Z"/>
    <path d="M79.99,54.73c4.95,5.88,4.59,12.75-.34,16.9-1.32,1.12-2.8,1.78-4.21,2.1l3.92,4.65c1.83,2.17,2.91,3.24,4.3,2.07l.17.2-6.52,5.5-.17-.2c1.39-1.17.52-2.41-1.31-4.59l-14.71-17.46c-1.83-2.17-2.93-2.3-4.42-1.73l-.17-.2,3.87-5.82.14-.11,2.52,2.99c-.17-2.76.41-5.58,2.72-7.52,3.87-3.26,9.76-2.07,14.23,3.23ZM77.1,59.03c-3.81-4.52-8.35-7.02-11.55-4.33-1.46,1.23-1.96,3.05-2.05,4.87l7.84,9.31c2.58,3.06,5.66,4.17,8.04,2.17,3.16-2.66,1.29-7.77-2.29-12.02Z"/>
    <path d="M101.8,48.72c.16,3.32-.49,7.42-4.54,10-5.25,3.34-11.08.79-14.59-4.72-3.86-6.07-2.75-13.1,2.38-16.36,4.16-2.65,8.92-1.62,11.72,3.28l-11.88,7.56c.2.4.46.81.7,1.19,3.51,5.51,7.99,8.34,12.15,5.69,2.44-1.55,3.62-4.15,3.73-6.64h.32ZM84.59,47.83l8.02-5.1c-2.23-4.16-4.75-6.14-7.41-4.45-2.81,1.79-2.45,5.83-.61,9.55Z"/>
    <path d="M112.61,11.69l1.18,3.8-.24.11c-2.4-.84-4.25-1.29-5.31-.83-1.71.75-1.82,2.93-.21,6.63l1.71,3.91,5.25-2.29.14,1.88-4.68,2.04,6.75,15.46c1.14,2.6,1.86,3.93,3.53,3.21l.11.24-7.81,3.41-.11-.24c1.67-.73,1.19-2.17.05-4.77l-6.75-15.46-2.12.92-.21-.49,1.62-2.06c-2.77-6.35-.92-12.2,4.25-14.46.69-.3,2.07-.81,2.86-1.01Z"/>
    <path d="M119.63,33.53c-2.23-7.03.69-13.08,6.78-15.02,6.18-1.96,11.81,1.09,14.07,8.2,2.23,7.03-.69,13.08-6.78,15.02-6.18,1.96-11.81-1.09-14.07-8.2ZM135.77,28.3c-1.91-6.01-5.36-10.41-9.26-9.17s-4.16,6.54-2.17,12.81c1.91,6.01,5.36,10.41,9.26,9.17s4.17-6.54,2.17-12.81Z"/>
    <path d="M154.88,12.13l-.18,4.74-.26.05c-1.21-.67-2.71-.93-3.76-.73-.87.17-1.76.74-2.62,2.4l2.58,13.52c.53,2.79.95,4.25,2.74,3.91l.05.26-8.38,1.6-.05-.26c1.79-.34,1.64-1.85,1.1-4.64l-2.38-12.48c-.53-2.79-1.43-3.44-3.01-3.68l-.05-.26,6.22-3.18.17-.03.89,4.67c1.31-3.1,2.8-5.46,5.11-5.91.57-.11,1.15-.13,1.81.02Z"/>
    <path d="M159.43,35.27l-.03-.26c1.81-.21,1.77-1.72,1.45-4.55l-2.72-23.92c-.32-2.82-1.16-3.53-2.72-3.89l-.03-.26L161.86.03l.18-.02,3.4,29.92c.32,2.82.62,4.31,2.43,4.1l.03.26-8.47.96Z"/>
    <path d="M186.48,12.17c2.56,2,4.13,5.35,4.2,9.7.12,7.37-4.42,12.33-10.81,12.43-2.44.04-4.58-.59-6.33-1.76l-2.25,3.59-.63-.39,2.29-3.63c-2.56-2-4.13-5.35-4.2-9.7-.12-7.37,4.42-12.33,10.81-12.43,2.44-.04,4.58.59,6.33,1.76l2.25-3.59.63.39-2.29,3.63ZM174.81,29.14l9.44-14.85c-1.01-2.29-2.59-3.73-4.77-3.7-4.08.07-5.87,5.07-5.76,11.64.04,2.58.39,4.97,1.09,6.91ZM185.71,22.04c-.04-2.58-.39-4.97-1.09-6.91l-9.44,14.85c1.01,2.29,2.59,3.73,4.77,3.7,4.08-.07,5.87-5.07,5.76-11.64Z"/>
    <path d="M214.82,24.42c-.99,7.62-6.31,11.99-12.7,11.15-2.86-.37-5.08-1.87-6.45-3.75l-2.28,2.35-.35-.05,3.74-28.71c.37-2.82-.28-3.71-1.71-4.43l.04-.26,6.86-.72.18.02-1.93,14.8c1.92-1.99,4.39-3.46,7.39-3.07,5.02.65,8.11,5.8,7.22,12.67ZM209.71,25.19c.76-5.86-.46-10.9-4.6-11.44-1.89-.25-3.57.61-4.98,1.77l-1.57,12.07c-.52,3.96.75,6.99,3.83,7.4,4.09.53,6.6-4.29,7.32-9.79Z"/>
    <path d="M226.42,27.29c.44-1.54,2.09-2.45,3.63-2.01s2.45,2.09,2.01,3.63c-.44,1.54-2.09,2.45-3.63,2.01-1.54-.44-2.45-2.09-2.01-3.63Z"/>
    <path d="M245.45,29.05c4.31-8.97,13.11-12.33,21-8.54,4.36,2.1,6.83,4.56,8.29,6.44l-2.62,5.45-.24-.12c0-5.52-1.42-9.16-5.78-11.25-5.33-2.56-11.65,1.99-15.67,10.36-3.9,8.13-3.94,15.9,1.79,18.64,3.16,1.52,6.02,1.12,7.13-1.21l2.13-4.44c1.42-2.96,2.01-4.6-.23-5.88l.12-.24,8.25,3.96-.12.24c-1.28-.42-2.11,1.11-3.53,4.07l-2.83,5.89c-2.97.44-7.19.09-11.35-1.9-8.33-4-10.61-12.58-6.34-21.47Z"/>
    <path d="M288.36,44.42l-3.43,3.27-.22-.15c-.4-1.33-1.3-2.55-2.19-3.14-.74-.49-1.78-.69-3.55-.1l-7.57,11.5c-1.56,2.38-2.28,3.71-.76,4.71l-.15.22-7.12-4.69.15-.22c1.52,1,2.46-.19,4.03-2.56l6.98-10.61c1.56-2.38,1.37-3.46.4-4.73l.15-.22,6.68,2.05.15.1-2.61,3.97c3.1-1.31,5.82-1.97,7.78-.68.48.32.92.71,1.29,1.27Z"/>
    <path d="M294.96,72.48c-1.83,2.17-2.05,3.61-1.24,4.99l-.17.2-5.42-2.59-.14-.11,2.15-3.94c-3.31.35-6.77.05-9.02-1.84-2.72-2.29-2.75-5.56.11-8.96l7.72-9.17c1.83-2.17,1.87-3.53,1.06-4.91l.17-.2,5.6,3.9.13.11-10.29,12.23c-2,2.38-2.94,4.6-.53,6.63,1.26,1.06,3.21,1.77,5.27,1.94l9.12-10.84c1.83-2.17,1.87-3.53,1.06-4.91l.17-.2,5.6,3.9.14.11-11.5,13.66Z"/>
    <path d="M317,87.16c-5.74,5.11-12.61,4.93-16.9.13-1.15-1.29-1.85-2.75-2.21-4.15l-4.54,4.05c-2.12,1.89-3.16,2.99-1.95,4.35l-.2.18-5.67-6.37.2-.18c1.21,1.36,2.43.46,4.55-1.44l17.04-15.18c2.12-1.89,2.22-2.99,1.61-4.47l.2-.18,5.92,3.71.12.13-2.92,2.6c2.75-.25,5.58.26,7.59,2.51,3.37,3.78,2.33,9.7-2.84,14.3ZM312.63,84.39c4.41-3.93,6.78-8.54,4.01-11.66-1.27-1.43-3.1-1.88-4.92-1.92l-9.09,8.09c-2.98,2.66-4.01,5.78-1.95,8.1,2.75,3.08,7.8,1.08,11.95-2.61Z"/>
    <path d="M330.83,107.72c-6.41,4.23-13.2,3.07-16.74-2.3-.95-1.45-1.44-2.99-1.59-4.43l-5.08,3.35c-2.37,1.57-3.56,2.51-2.55,4.03l-.22.15-4.7-7.12.22-.15c1,1.52,2.34.8,4.71-.77l19.05-12.58c2.37-1.57,2.62-2.64,2.24-4.19l.22-.15,5.33,4.52.1.15-3.26,2.15c2.76.15,5.49,1.06,7.15,3.58,2.79,4.23.92,9.93-4.86,13.75ZM326.9,104.35c4.93-3.26,7.94-7.48,5.64-10.96-1.05-1.59-2.8-2.3-4.6-2.61l-10.16,6.71c-3.34,2.2-4.8,5.14-3.09,7.74,2.28,3.45,7.57,2.19,12.2-.87Z"/>
    <path d="M334.26,130.11c-3.32-.23-7.31-1.36-9.4-5.68-2.7-5.6.51-11.1,6.4-13.94,6.48-3.13,13.33-1.2,15.97,4.28,2.14,4.44.57,9.05-4.63,11.26l-6.12-12.68c-.42.15-.86.37-1.26.56-5.88,2.84-9.22,6.96-7.08,11.4,1.25,2.6,3.7,4.08,6.16,4.48l-.04.32ZM337.16,113.12l4.13,8.56c4.39-1.73,6.65-4,5.28-6.84-1.45-3-5.5-3.12-9.41-1.72Z"/>
    <path d="M369.76,145.19l-3.91.72-.08-.26c1.12-2.29,1.79-4.07,1.45-5.17-.54-1.79-2.69-2.15-6.56-.98l-4.08,1.24,1.66,5.48-1.88-.08-1.48-4.89-16.15,4.89c-2.72.82-4.13,1.39-3.6,3.13l-.25.08-2.47-8.16.25-.08c.53,1.74,2.01,1.43,4.73.61l16.15-4.89-.67-2.21.51-.15,1.86,1.85c6.63-2.01,12.22.52,13.86,5.92.22.72.56,2.15.66,2.96Z"/>
    <path d="M347.24,149.58c7.24-1.39,12.91,2.22,14.12,8.5,1.22,6.37-2.47,11.6-9.8,13.01-7.24,1.39-12.91-2.22-14.12-8.5-1.23-6.37,2.47-11.6,9.8-13.01ZM350.53,166.22c6.19-1.19,10.97-4.1,10.2-8.11-.77-4.01-6.01-4.9-12.46-3.66-6.19,1.19-10.97,4.1-10.2,8.11.77,4.01,6.01,4.9,12.46,3.66Z"/>
    <path d="M364.36,187.06l-4.68-.73-.02-.27c.81-1.13,1.24-2.58,1.16-3.65-.06-.89-.53-1.83-2.08-2.88l-13.73.99c-2.83.2-4.33.45-4.2,2.26l-.27.02-.61-8.5.27-.02c.13,1.82,1.65,1.84,4.48,1.64l12.67-.91c2.83-.2,3.58-1.01,4-2.56l.27-.02,2.43,6.55v.18s-4.73.34-4.73.34c2.92,1.66,5.1,3.42,5.27,5.76.04.58,0,1.16-.23,1.8Z"/>
    <path d="M340.92,188.8h.27c-.03,1.83,1.48,1.98,4.32,2.03l24.07.39c2.84.05,3.65-.7,4.21-2.2h.27s1.49,6.74,1.49,6.74v.18s-30.11-.49-30.11-.49c-2.84-.05-4.35.06-4.38,1.88h-.27s.14-8.53.14-8.53Z"/>
    <path d="M360.65,218.52c-2.29,2.31-5.81,3.46-10.14,3.01-7.33-.76-11.71-5.86-11.05-12.22.25-2.43,1.14-4.48,2.51-6.08l-3.29-2.67.46-.58,3.33,2.71c2.29-2.31,5.81-3.46,10.14-3.01,7.33.76,11.71,5.86,11.05,12.22-.25,2.43-1.14,4.48-2.51,6.08l3.3,2.67-.46.58-3.33-2.71ZM350.94,216.57c2.56.27,4.98.21,6.99-.25l-13.62-11.15c-2.4.73-4.02,2.13-4.24,4.29-.42,4.06,4.33,6.43,10.87,7.11ZM345.19,204.9l13.62,11.15c2.4-.73,4.02-2.13,4.24-4.29.42-4.06-4.33-6.43-10.87-7.11-2.56-.27-4.98-.21-6.99.25Z"/>
    <path d="M345.21,245.18c-7.45-1.88-11.17-7.67-9.6-13.92.71-2.8,2.45-4.83,4.48-5.97l-2.06-2.54.09-.34,28.08,7.07c2.76.69,3.72.16,4.6-1.18l.26.07-.09,6.89-.04.17-14.47-3.64c1.75,2.14,2.92,4.77,2.18,7.7-1.24,4.91-6.71,7.38-13.43,5.69ZM345.04,240.01c5.73,1.44,10.88.82,11.9-3.23.47-1.85-.19-3.62-1.18-5.15l-11.8-2.97c-3.88-.98-7.04-.08-7.79,2.94-1.01,4.01,3.49,7.06,8.87,8.42Z"/>
    <path d="M340.98,256.36c1.47.62,2.19,2.36,1.57,3.84s-2.36,2.19-3.84,1.57-2.19-2.36-1.57-3.84c.62-1.47,2.36-2.19,3.84-1.57Z"/>
    <path d="M337.01,275.05c8.41,5.33,10.71,14.46,6.03,21.86-2.59,4.09-5.33,6.25-7.37,7.48l-5.1-3.23.14-.23c5.49.64,9.26-.34,11.85-4.43,3.16-4.99-.62-11.8-8.46-16.77-7.62-4.83-15.33-5.77-18.73-.4-1.88,2.96-1.81,5.85.37,7.23l4.17,2.64c2.78,1.76,4.33,2.54,5.86.46l.23.14-4.9,7.73-.22-.14c.56-1.22-.85-2.22-3.63-3.98l-5.52-3.49c-.09-3,.75-7.15,3.22-11.05,4.95-7.8,13.74-9.07,22.07-3.79Z"/>
    <path d="M316.75,315.85l-2.85-3.79.17-.2c1.37-.25,2.69-.99,3.37-1.81.57-.68.89-1.69.51-3.51l-10.54-8.86c-2.18-1.83-3.42-2.7-4.59-1.3l-.2-.17,5.48-6.53.2.17c-1.17,1.39-.1,2.47,2.08,4.3l9.73,8.17c2.18,1.83,3.27,1.76,4.65.95l.2.17-2.82,6.39-.11.14-3.64-3.06c.94,3.23,1.28,6-.23,7.81-.37.44-.81.83-1.41,1.13Z"/>
    <path d="M288.1,319.16c-1.95-2.07-3.35-2.46-4.81-1.81l-.18-.19,3.2-5.09.13-.12,3.66,2.59c.04-3.33.74-6.73,2.88-8.74,2.59-2.43,5.84-2.08,8.89,1.15l8.21,8.73c1.95,2.07,3.29,2.27,4.76,1.62l.18.19-4.52,5.11-.13.12-10.95-11.65c-2.13-2.26-4.23-3.46-6.53-1.3-1.2,1.13-2.13,2.98-2.54,5.01l9.71,10.32c1.95,2.07,3.29,2.27,4.76,1.62l.18.19-4.52,5.11-.13.12-12.23-13Z"/>
    <path d="M270.98,339.35c-4.41-6.29-3.44-13.1,1.83-16.8,1.42-1,2.95-1.52,4.38-1.72l-3.49-4.98c-1.63-2.33-2.61-3.49-4.1-2.44l-.15-.22,6.98-4.9.15.22c-1.49,1.04-.73,2.36.9,4.69l13.11,18.69c1.63,2.33,2.71,2.55,4.25,2.12l.15.22-4.37,5.45-.15.1-2.24-3.2c-.07,2.76-.91,5.52-3.38,7.25-4.15,2.91-9.9,1.19-13.88-4.48ZM274.23,335.33c3.39,4.84,7.7,7.73,11.12,5.33,1.56-1.1,2.22-2.86,2.48-4.67l-6.99-9.96c-2.29-3.27-5.27-4.66-7.82-2.87-3.38,2.37-1.98,7.62,1.21,12.17Z"/>
    <path d="M248.96,350.67c-3.46-6.86-1.51-13.46,4.24-16.36,1.55-.78,3.13-1.08,4.58-1.07l-2.74-5.43c-1.28-2.54-2.08-3.83-3.7-3.01l-.12-.24,7.61-3.84.12.24c-1.62.82-1.06,2.23.21,4.77l10.27,20.38c1.28,2.54,2.31,2.91,3.9,2.71l.12.24-5.11,4.76-.16.08-1.76-3.49c-.47,2.72-1.69,5.33-4.39,6.69-4.52,2.28-9.97-.25-13.09-6.43ZM252.76,347.17c2.66,5.27,6.5,8.76,10.23,6.88,1.71-.86,2.61-2.51,3.12-4.26l-5.48-10.87c-1.8-3.57-4.55-5.37-7.32-3.97-3.69,1.86-3.05,7.26-.56,12.22Z"/>
    <path d="M226.32,351.45c.61-3.26,2.2-7.1,6.74-8.66,5.88-2.02,10.96,1.82,13.09,7.99,2.34,6.8-.37,13.38-6.12,15.36-4.66,1.61-9.05-.5-10.64-5.92l13.31-4.59c-.1-.43-.26-.9-.41-1.32-2.13-6.17-5.83-9.97-10.49-8.36-2.73.94-4.49,3.19-5.17,5.59l-.31-.08ZM242.84,356.33l-8.99,3.1c1.2,4.57,3.19,7.08,6.17,6.05,3.15-1.08,3.74-5.09,2.82-9.14Z"/>
    <path d="M207.16,384.95l-.26-3.97.26-.05c2.14,1.38,3.83,2.25,4.97,2.05,1.84-.33,2.46-2.42,1.75-6.4l-.75-4.2-5.64,1.01.3-1.86,5.03-.9-2.96-16.62c-.5-2.8-.9-4.26-2.69-3.94l-.05-.26,8.4-1.5.05.26c-1.79.32-1.66,1.83-1.16,4.63l2.96,16.62,2.27-.41.09.52-2.05,1.63c1.22,6.82-1.95,12.08-7.51,13.07-.74.13-2.2.3-3.01.31Z"/>
    <path d="M205.44,362.06c.54,7.35-3.71,12.56-10.09,13.03-6.47.47-11.23-3.81-11.78-11.25-.54-7.35,3.71-12.56,10.09-13.03,6.47-.47,11.24,3.81,11.78,11.25ZM188.53,363.39c.46,6.29,2.79,11.37,6.87,11.08s5.57-5.4,5.09-11.95c-.46-6.29-2.79-11.37-6.87-11.07-4.08.3-5.57,5.4-5.09,11.95Z"/>
    <path d="M166.22,374.73l1.27-4.57h.27c1.03.94,2.42,1.54,3.49,1.58.89.04,1.88-.32,3.1-1.73l.6-13.75c.12-2.84.06-4.35-1.76-4.43v-.27s8.53.37,8.53.37v.27c-1.83-.08-2.03,1.42-2.15,4.26l-.55,12.69c-.12,2.84.6,3.67,2.08,4.27v.27s-6.8,1.66-6.8,1.66h-.18s.21-4.76.21-4.76c-1.99,2.71-3.98,4.67-6.33,4.57-.58-.03-1.15-.14-1.76-.43Z"/>
    <path d="M167.09,351.17l-.03.26c-1.81-.22-2.12,1.27-2.46,4.09l-2.84,23.9c-.34,2.82.32,3.71,1.76,4.41l-.03.26-6.85.79-.18-.02,3.56-29.9c.34-2.82.38-4.34-1.43-4.55l.03-.26,8.47,1.01Z"/>
    <path d="M135.42,367.39c-2.02-2.55-2.76-6.17-1.8-10.42,1.61-7.19,7.19-10.95,13.43-9.55,2.38.54,4.32,1.65,5.75,3.2l3.03-2.96.52.53-3.08,3c2.02,2.55,2.76,6.17,1.81,10.42-1.61,7.19-7.19,10.95-13.43,9.55-2.38-.54-4.32-1.65-5.75-3.2l-3.03,2.96-.52-.53,3.08-3ZM138.49,357.97c-.56,2.51-.79,4.92-.56,6.97l12.66-12.23c-.45-2.47-1.64-4.24-3.77-4.71-3.99-.89-6.9,3.55-8.33,9.96ZM150.75,353.62l-12.66,12.22c.45,2.47,1.64,4.24,3.77,4.71,3.99.89,6.9-3.55,8.33-9.96.56-2.51.79-4.92.56-6.97Z"/>
    <path d="M110.72,348.9c2.74-7.18,8.93-10.19,14.94-7.89,2.7,1.03,4.51,3,5.4,5.15l2.76-1.75.33.13-10.33,27.05c-1.01,2.66-.59,3.67.63,4.71l-.1.25-6.83-.9-.17-.06,5.32-13.94c-2.33,1.49-5.08,2.34-7.9,1.26-4.73-1.81-6.54-7.53-4.07-14.01ZM115.87,349.35c-2.11,5.52-2.09,10.71,1.81,12.19,1.78.68,3.62.24,5.25-.56l4.34-11.37c1.43-3.73.9-6.98-2-8.08-3.86-1.47-7.42,2.63-9.4,7.82Z"/>
    <path d="M100.11,343.4c-.79,1.39-2.6,1.89-4,1.11-1.39-.79-1.89-2.6-1.11-4,.79-1.39,2.6-1.89,4-1.11,1.39.79,1.89,2.6,1.11,4Z"/>
  </g>
  <g id="SVGRepo_iconCarrier" data-name="SVGRepo iconCarrier">
    <path class="cls-2" d="M213.49,221.53c-2.49,0-4.5-2.01-4.5-4.5v-3.17c0-14.97-12.18-27.16-27.16-27.16s-27.16,12.18-27.16,27.16c0,2.49-2.01,4.5-4.5,4.5s-4.5-2.01-4.5-4.5c0-19.94,16.22-36.16,36.16-36.16s36.16,16.22,36.16,36.16v3.17c0,2.49-2.01,4.5-4.5,4.5Z"/>
    <path class="cls-2" d="M181.83,186.71c-12.96,0-23.5-10.54-23.5-23.5s10.54-23.49,23.5-23.49,23.5,10.54,23.5,23.49-10.54,23.5-23.5,23.5ZM181.83,148.72c-7.99,0-14.5,6.5-14.5,14.49s6.5,14.5,14.5,14.5,14.5-6.5,14.5-14.5-6.5-14.49-14.5-14.49Z"/>
    <path class="cls-1" d="M168.96,251.09c-2.49,0-4.5-2.01-4.5-4.5v-6.33c0-21.96-17.86-39.82-39.82-39.82s-39.82,17.86-39.82,39.82v6.33c0,2.49-2.01,4.5-4.5,4.5s-4.5-2.01-4.5-4.5v-6.33c0-26.92,21.9-48.82,48.82-48.82s48.82,21.9,48.82,48.82v6.33c0,2.49-2.01,4.5-4.5,4.5Z"/>
    <path class="cls-1" d="M219.61,216.27c-2.49,0-4.5-2.01-4.5-4.5v-3.17c0-14.97-12.18-27.16-27.16-27.16s-27.16,12.18-27.16,27.16c0,2.49-2.01,4.5-4.5,4.5s-4.5-2.01-4.5-4.5c0-19.94,16.22-36.16,36.16-36.16s36.16,16.22,36.16,36.16v3.17c0,2.49-2.01,4.5-4.5,4.5Z"/>
    <path class="cls-1" d="M285.36,242.56c-2.49,0-4.5-2.01-4.5-4.5v-3.84c0-18.71-14.3-33.93-31.87-33.93s-31.87,15.22-31.87,33.93c0,2.49-2.01,4.5-4.5,4.5s-4.5-2.01-4.5-4.5c0-23.67,18.33-42.93,40.87-42.93s40.87,19.26,40.87,42.93v3.84c0,2.49-2.01,4.5-4.5,4.5Z"/>
    <path class="cls-1" d="M124.63,200.44c-16.45,0-29.83-13.38-29.83-29.83s13.38-29.83,29.83-29.83,29.83,13.38,29.83,29.83-13.38,29.83-29.83,29.83ZM124.63,149.78c-11.48,0-20.83,9.34-20.83,20.83s9.34,20.83,20.83,20.83,20.83-9.34,20.83-20.83-9.34-20.83-20.83-20.83Z"/>
    <path class="cls-1" d="M248.99,200.07c-13.99,0-25.37-11.38-25.37-25.37s11.38-25.37,25.37-25.37,25.37,11.38,25.37,25.37-11.38,25.37-25.37,25.37ZM248.99,158.32c-9.03,0-16.37,7.35-16.37,16.37s7.35,16.37,16.37,16.37,16.37-7.34,16.37-16.37-7.34-16.37-16.37-16.37Z"/>
    <path class="cls-1" d="M187.95,181.44c-12.96,0-23.49-10.54-23.49-23.49s10.54-23.5,23.49-23.5,23.5,10.54,23.5,23.5-10.54,23.49-23.5,23.49ZM187.95,143.45c-7.99,0-14.49,6.5-14.49,14.5s6.5,14.49,14.49,14.49,14.5-6.5,14.5-14.49-6.5-14.5-14.5-14.5Z"/>
  </g>
</svg>