<?xml version="1.0" encoding="UTF-8"?>
<svg id="Layer_1" data-name="Layer 1" xmlns="http://www.w3.org/2000/svg" viewBox="0 0 374.73 385.35">
  <defs>
    <style>
      .cls-1 {
        fill: #45484c;
      }

      .cls-2 {
        fill: #6adecf;
      }
    </style>
  </defs>
  <g>
    <path d="M12.9,166.48c-1.58-.26-2.68-1.79-2.42-3.37s1.79-2.68,3.37-2.42c1.58.26,2.68,1.79,2.42,3.37s-1.79,2.68-3.37,2.42Z"/>
    <path d="M28.98,130.7c3.86-.09,5.66-.44,6.41-2.15l.25.08-3.54,10.8-.25-.08c.61-2.42-.74-3.75-3.24-3.68l-6.92.16-3.08,9.41,2.04,1.6c4.4,3.4,7.07,3.95,8.35,1.19l.25.08-2.32,7.09-.25-.08c.41-2.11-2.07-4.09-6.54-7.56L0,131.86l.11-.34,28.87-.83ZM17.71,144.58l2.86-8.74-13.75.31,10.89,8.43Z"/>
    <path d="M34.36,121.64c2.54,1.27,3.95,1.83,4.77.2l.24.12-3.81,7.63-.24-.12c.81-1.63-.48-2.42-3.02-3.69l-21.54-10.76c-2.54-1.27-3.6-.95-4.75.16l-.24-.12,1.57-6.71.08-.16,26.94,13.46ZM27.09,112.54c11.54-.74,17-1.44,17.96-2.55l.24.12c-.54,1.47-1.05,2.5-1.49,3.38-1.47,2.94-4.27,2.98-15.91,3.62l-1.93-5.78c-.84-2.5-1.59-3.97-2.7-4.53-.99-.5-1.93-.02-2.4.74l-.24-.12,3.61-7.23.24.12c-.44,1.47.52,5.62,2.17,10.77l.46,1.47Z"/>
    <path d="M51.51,90.8c2.34,1.61,3.8,1.69,5.09.74l.22.15-2.04,5.65-.1.15-4.13-1.75c.67,3.26.72,6.73-.94,9.15-2.01,2.93-5.26,3.28-8.93.77l-9.89-6.78c-2.34-1.61-3.7-1.51-4.99-.57l-.22-.15,3.33-5.96.1-.15,13.19,9.04c2.56,1.76,4.87,2.48,6.65-.12.93-1.36,1.45-3.37,1.41-5.44l-11.69-8.01c-2.34-1.61-3.7-1.51-4.99-.57l-.22-.15,3.33-5.96.1-.15,14.73,10.09Z"/>
    <path d="M65.11,78.38c.64,3.33,0,6.49-1.63,8.36-2.25,2.58-4.9,2.85-7.95.2l-12.19-10.62-1.52,1.74-.4-.35.21-.64c.86-2.67.65-5.27-1.39-9.22l.17-.2,4.62,4.03,5.11-5.86.9,1.67-4.67,5.36,11.98,10.45c1.87,1.63,3.6,1.61,5.03-.03,1.05-1.21,1.42-3.12,1.4-4.79l.31-.08Z"/>
    <path d="M68.47,48.75l2.23,4.18-.2.17c-1.39.03-2.81.56-3.61,1.26-.67.58-1.15,1.53-1.05,3.39l9.03,10.39c1.87,2.14,2.96,3.2,4.33,2l.17.2-6.43,5.6-.17-.2c1.37-1.2.48-2.42-1.38-4.57l-8.34-9.58c-1.87-2.14-2.96-2.25-4.45-1.66l-.17-.2,3.78-5.88.13-.12,3.12,3.58c-.43-3.33-.33-6.13,1.45-7.67.44-.38.93-.69,1.57-.9Z"/>
    <path d="M69.41,39.23c-1.51-2.14-.94-4.72,1.28-6.28,2.21-1.56,4.83-1.23,6.34.91s.94,4.72-1.28,6.28c-2.21,1.56-4.83,1.24-6.34-.91ZM71.04,38.07c1.33,1.89,2.86,2.6,4.35,1.55s1.33-2.73,0-4.62-2.86-2.6-4.35-1.55-1.33,2.73,0,4.62ZM97.81,53.22c.21,1.54-.02,3.98-1.98,5.36-2.07,1.46-3.73.02-4.75-1.27-.14,2.81-1.42,5.62-3.49,7.08-2.5,1.77-5.35,1.43-6.96-.85-1.87-2.65-1.15-5.87,2.33-10.18l2.71-3.32-1.82-2.58c-.74-1.05-3.48-4.94-7.07-2.4-2.4,1.69-3,4.61-2.6,7.49l-.29.04c-.96-2.91-.83-7.73,3.35-10.67,3.67-2.58,7.27-1.48,9.83,2.15l6.47,9.18c1.05,1.49,1.93,2.66,3.06,1.87.76-.54.89-1.44.9-1.88h.32ZM90.69,57.16l-4.66-6.61-1.63,2.24c-2.31,3.2-2.41,4.91-.9,7.05,1.36,1.92,3.36,2.3,4.92,1.2,1.2-.84,1.93-2.5,2.27-3.88Z"/>
    <path d="M114.42,40.92c1.32,2.52,2.56,3.27,4.15,3.04l.12.24-4.46,4.04-.16.08-2.64-3.23c-.41,2.77-1.57,5.43-4.29,6.85-4.49,2.35-9.98-.1-13.19-6.24-3.56-6.81-1.71-13.44,3.99-16.43,1.54-.8,3.12-1.13,4.57-1.14l-2.78-5.31c-1.32-2.52-2.36-2.88-3.94-2.65l-.12-.24,5.2-4.53.16-.08,13.38,25.59ZM111.11,44.56l-5.64-10.79c-1.85-3.54-4.63-5.3-7.38-3.86-3.66,1.91-2.95,7.31-.37,12.23,2.74,5.24,6.63,8.66,10.34,6.73,1.69-.89,2.58-2.55,3.06-4.31Z"/>
    <path d="M130.76,35.68c4.6-1.64,7.63-.69,8.94,2.99,2.03,5.69-3.13,11.59-8.9,13.65-5.1,1.82-8.78.25-9.9-2.88-.81-2.26.31-4.17,2.24-5.89l.54-.48.17-.06c-.54,1.28-.4,2.45.06,3.75,1.18,3.31,4.56,4.6,8.83,3.08,4.02-1.43,6.28-4.6,5.06-8.03-.84-2.34-3.07-3.2-6.17-2.09l-8.33,2.97c-2.43.87-3.99-.09-4.57-1.72-.66-1.84.45-3.51,2.52-5.9-3.07-.13-5.58-1.88-6.72-5.1-1.61-4.52.72-8.7,5.53-10.41,1.76-.63,3.48-.82,4.99-.55l6.45-3.34.07,2.57-4.84,1.25c1.8.82,3.24,2.33,4.03,4.55,1.61,4.52-.63,8.67-5.49,10.4-1.21.43-2.36.65-3.48.68-.97,1.38-1.15,2.06-.9,2.77.24.67.88,1.01,2.05.59l7.82-2.79ZM118.59,28.42c1.39,3.89,3.62,6.44,6.51,5.41,2.85-1.01,2.96-4.4,1.57-8.29-1.39-3.89-3.6-6.4-6.45-5.39-2.84,1.01-3.01,4.38-1.63,8.27Z"/>
    <path d="M133.14,8.79c-.39-1.55.55-3.11,2.14-3.51,1.55-.39,3.11.55,3.5,2.1.4,1.59-.54,3.16-2.09,3.54-1.59.4-3.16-.54-3.56-2.13ZM139.56,38.23l-.06-.26c1.77-.44,1.53-1.94.84-4.7l-3.09-12.32c-.69-2.76-1.62-3.35-3.21-3.5l-.06-.26,6.03-3.53.17-.04,4.65,18.52c.69,2.76,1.19,4.19,2.95,3.75l.06.26-8.27,2.07Z"/>
    <path d="M158.81,10.63l6.23-.97.04.26c-1.45.5-2.14,2.4-3.24,7.51l-3.69,17.38-.35.05-9.86-17.21c-1.73-3.01-2.66-4.4-4.19-4.43l-.04-.26,9.04-1.4.04.26c-1.95.48-1.77,1.94-.64,3.96l6.72,12.04,2.19-10.54c1-4.83-.23-6.43-2.21-6.4l-.04-.26Z"/>
    <path d="M188.3,27.66c.06,2.84.22,4.35,2.04,4.31v.27s-8.52.18-8.52.18v-.27c1.82-.04,1.92-1.55,1.86-4.39l-.23-10.92c-.06-3.11-.82-5.4-3.97-5.34-1.64.03-3.58.78-5.24,2.02l.3,14.43c.06,2.84.22,4.35,2.04,4.31v.27s-8.52.18-8.52.18v-.27c1.81-.04,1.92-1.55,1.86-4.39l-.26-12.7c-.06-2.84-.83-3.62-2.35-4.13v-.27s6.66-2.09,6.66-2.09h.18s.09,4.26.09,4.26c2.26-2.4,5.06-4.46,7.99-4.52,3.55-.07,5.73,2.37,5.83,6.81l.25,12.25Z"/>
    <path d="M190.97,32.61l.02-.27c1.82.14,2.07-1.35,2.29-4.19l1-12.66c.22-2.83-.46-3.69-1.93-4.34l.02-.27,6.84-1.42h.18s-1.51,19.05-1.51,19.05c-.22,2.83-.21,4.35,1.6,4.49l-.02.27-8.5-.67ZM194.28,2.66c.13-1.59,1.51-2.78,3.15-2.65,1.59.13,2.78,1.51,2.65,3.11-.13,1.64-1.52,2.82-3.11,2.69-1.64-.13-2.82-1.52-2.69-3.15Z"/>
    <path d="M221.2,32.16c-.51,2.8-.65,4.3,1.14,4.63l-.05.26-8.39-1.53.05-.26c1.79.33,2.19-1.13,2.7-3.93l1.96-10.75c.56-3.06.28-5.46-2.83-6.02-1.62-.3-3.67.05-5.54.93l-2.59,14.2c-.51,2.8-.65,4.3,1.14,4.63l-.05.26-8.39-1.53.05-.26c1.79.33,2.19-1.13,2.7-3.93l2.28-12.49c.51-2.8-.09-3.72-1.48-4.51l.05-.26,6.95-.72.17.03-.77,4.19c2.69-1.9,5.85-3.36,8.73-2.83,3.49.64,5.14,3.47,4.35,7.84l-2.2,12.06Z"/>
    <path d="M237.36,36.8c4.64,1.53,6.44,4.14,5.22,7.85-1.89,5.74-9.58,7.22-15.4,5.3-5.15-1.7-7.08-5.19-6.04-8.35.75-2.28,2.8-3.1,5.38-3.27l.72-.04.17.06c-1.21.68-1.82,1.69-2.25,3-1.1,3.33.78,6.43,5.08,7.85,4.05,1.34,7.78.23,8.92-3.23.78-2.36-.46-4.41-3.58-5.44l-8.39-2.77c-2.45-.81-3.1-2.52-2.55-4.16.61-1.86,2.51-2.49,5.61-3.11-2.34-1.99-3.25-4.91-2.17-8.15,1.5-4.55,5.91-6.42,10.76-4.82,1.77.58,3.25,1.49,4.28,2.63l7.14,1.33-1.52,2.07-4.58-1.98c.92,1.75,1.12,3.83.38,6.07-1.5,4.55-5.82,6.45-10.71,4.84-1.22-.4-2.26-.93-3.17-1.61-1.61.5-2.17.92-2.41,1.64-.22.67.07,1.33,1.25,1.72l7.89,2.6ZM232.22,23.6c-1.29,3.92-1.1,7.31,1.81,8.27,2.87.95,5.04-1.66,6.33-5.58,1.29-3.92,1.09-7.26-1.78-8.21-2.87-.95-5.06,1.6-6.36,5.52Z"/>
    <path d="M256.46,36.88c.72-1.43,2.5-2.02,3.93-1.31,1.43.72,2.02,2.5,1.31,3.93-.72,1.43-2.5,2.02-3.93,1.31-1.43-.72-2.02-2.5-1.31-3.93Z"/>
    <path d="M285.84,62.87c-1.06,3.71-1.26,5.53.16,6.76l-.15.22-9.27-6.59.15-.22c2.13,1.29,3.8.41,4.47-2l1.9-6.66-8.07-5.74-2.14,1.48c-4.56,3.19-5.87,5.58-3.62,7.62l-.15.22-6.08-4.32.15-.22c1.89,1.02,4.52-.77,9.17-4l20.98-14.57.29.21-7.78,27.82ZM275.93,47.98l7.5,5.33,3.78-13.22-11.28,7.9Z"/>
    <path d="M292.89,70.66c-1.96,2.05-2.91,3.24-1.59,4.5l-.18.19-6.16-5.89.18-.19c1.32,1.26,2.46.26,4.42-1.8l16.63-17.4c1.96-2.05,1.97-3.15,1.25-4.58l.18-.19,5.95,3.48.13.12-20.8,21.77ZM303.72,66.4c-2.7,11.24-3.64,16.67-2.86,17.91l-.18.19c-1.25-.95-2.08-1.74-2.79-2.42-2.38-2.27-1.59-4.96,1.23-16.27l6.09-.14c2.64-.06,4.26-.35,5.12-1.25.77-.8.59-1.83,0-2.51l.18-.19,5.84,5.58-.18.19c-1.28-.85-5.52-1.16-10.92-1.1h-1.54Z"/>
    <path d="M317.32,96.15c-2.23,1.77-2.73,3.13-2.21,4.65l-.21.17-4.8-3.62-.11-.14,2.89-3.43c-3.31-.32-6.65-1.3-8.47-3.59-2.21-2.78-1.59-6,1.89-8.76l9.39-7.46c2.23-1.77,2.54-3.09,2.01-4.61l.21-.17,4.71,4.93.11.14-12.52,9.95c-2.43,1.93-3.8,3.93-1.84,6.4,1.02,1.29,2.79,2.38,4.78,2.95l11.09-8.82c2.23-1.77,2.54-3.09,2.01-4.61l.21-.17,4.71,4.93.11.14-13.98,11.11Z"/>
    <path d="M325.2,112.82c-3.37-.37-6.2-1.91-7.51-4.02-1.8-2.91-1.28-5.53,2.15-7.66l13.74-8.51-1.22-1.96.45-.28.55.39c2.3,1.6,4.84,2.17,9.22,1.39l.14.23-5.21,3.23,4.09,6.61-1.86.37-3.74-6.04-13.51,8.38c-2.11,1.31-2.6,2.97-1.46,4.82.84,1.36,2.56,2.28,4.16,2.75v.32Z"/>
    <path d="M352.5,124.79l-4.66.89-.11-.24c.38-1.33.3-2.85-.13-3.82-.36-.81-1.12-1.54-2.93-2.01l-12.6,5.56c-2.6,1.15-3.93,1.88-3.19,3.54l-.24.11-3.44-7.8.24-.11c.74,1.67,2.17,1.18,4.77.03l11.62-5.13c2.6-1.15,3.03-2.16,2.91-3.76l.24-.11,4.5,5.35.07.16-4.35,1.92c3.31.58,5.95,1.5,6.9,3.65.23.53.38,1.09.39,1.77Z"/>
    <path d="M339.52,151.48c-1.53-.25-3.8-1.2-4.53-3.48-.78-2.41,1.09-3.57,2.62-4.16-2.65-.97-4.94-3.02-5.72-5.43-.94-2.92.22-5.53,2.88-6.39,3.09-1,5.95.64,9.03,5.25l2.37,3.58,3-.97c1.23-.4,5.75-1.86,4.4-6.04-.9-2.79-3.51-4.23-6.38-4.71l.04-.29c3.06-.06,7.63,1.5,9.2,6.36,1.38,4.27-.74,7.38-4.97,8.75l-10.69,3.46c-1.73.56-3.11,1.05-2.69,2.36.29.89,1.11,1.27,1.53,1.42l-.09.31ZM337.88,143.51l7.69-2.49-1.65-2.22c-2.37-3.15-3.97-3.76-6.46-2.95-2.24.72-3.2,2.53-2.61,4.34.45,1.39,1.82,2.59,3.03,3.32ZM361.32,128.52c2.49-.81,4.79.51,5.62,3.09.83,2.58-.26,4.98-2.75,5.79-2.49.81-4.79-.51-5.62-3.09-.83-2.58.26-4.98,2.75-5.79ZM361.94,130.42c-2.2.71-3.33,1.96-2.77,3.7.56,1.73,2.21,2.08,4.41,1.38,2.2-.71,3.33-1.96,2.77-3.7-.56-1.73-2.21-2.08-4.41-1.38Z"/>
    <path d="M346.33,171c-2.8.51-3.89,1.47-4.14,3.05l-.26.05-2.53-5.46-.03-.17,3.87-1.56c-2.52-1.21-4.72-3.12-5.27-6.13-.91-4.98,3.06-9.49,9.88-10.73,7.56-1.37,13.34,2.36,14.49,8.7.31,1.71.15,3.31-.28,4.7l5.9-1.07c2.8-.51,3.45-1.39,3.7-2.97l.26-.05,2.77,6.31.03.17-28.41,5.16ZM343.84,166.76l11.97-2.17c3.93-.71,6.44-2.84,5.88-5.9-.74-4.06-6.1-4.99-11.56-4-5.81,1.06-10.24,3.76-9.5,7.86.34,1.88,1.67,3.22,3.2,4.2Z"/>
    <path d="M346.48,188.15c.21,4.88-1.6,7.49-5.5,7.65-6.04.25-10.14-6.42-10.39-12.54-.23-5.41,2.36-8.46,5.68-8.59,2.4-.1,3.89,1.53,4.96,3.88l.29.65v.18c-1.05-.89-2.22-1.11-3.59-1.05-3.51.15-5.74,3-5.55,7.52.18,4.26,2.53,7.36,6.17,7.21,2.48-.1,3.96-1.99,3.82-5.27l-.37-8.83c-.11-2.57,1.26-3.79,2.99-3.86,1.95-.08,3.22,1.46,4.89,4.15,1.04-2.89,3.45-4.77,6.86-4.91,4.79-.2,8.09,3.26,8.31,8.36.08,1.86-.25,3.57-.95,4.93l1.28,7.15-2.47-.7.24-4.99c-1.32,1.48-3.19,2.4-5.54,2.5-4.79.2-8.09-3.17-8.31-8.32-.05-1.29.08-2.45.39-3.53-1.03-1.33-1.63-1.71-2.38-1.68-.71.03-1.22.54-1.17,1.78l.35,8.3ZM357.02,178.68c-4.13.17-7.22,1.55-7.1,4.61.13,3.02,3.33,4.13,7.46,3.96,4.13-.17,7.18-1.55,7.05-4.56-.13-3.02-3.29-4.17-7.41-4Z"/>
    <path d="M341.45,195.83h.27c-.1,1.83,1.4,2.05,4.24,2.2l12.69.68c2.84.15,3.68-.56,4.29-2.04h.27s1.59,6.82,1.59,6.82v.18s-19.08-1.02-19.08-1.02c-2.84-.15-4.35-.1-4.45,1.72h-.27s.45-8.53.45-8.53ZM371.47,198.37c1.6.08,2.81,1.44,2.73,3.08-.08,1.6-1.44,2.81-3.04,2.73-1.64-.09-2.86-1.44-2.77-3.04.09-1.64,1.44-2.86,3.08-2.77Z"/>
    <path d="M362.17,222.34l-.91,6.24-.26-.04c-.05-1.53-1.67-2.76-6.23-5.3l-15.54-8.63.05-.35,19.35-4.37c3.39-.76,4.98-1.25,5.46-2.71l.26.04-1.31,9.06-.26-.04c.11-2-1.33-2.26-3.6-1.78l-13.48,2.89,9.44,5.18c4.32,2.38,6.22,1.67,6.77-.23l.26.04Z"/>
    <path d="M337.22,245.49c-2.73-.78-4.22-1.07-4.72.68l-.26-.07,2.34-8.2.26.07c-.5,1.75.92,2.29,3.65,3.08l10.51,3c2.99.85,5.41.81,6.27-2.23.45-1.58.3-3.65-.38-5.61l-13.88-3.97c-2.73-.78-4.22-1.07-4.72.68l-.26-.07,2.34-8.2.26.07c-.5,1.75.92,2.29,3.65,3.08l12.21,3.49c2.73.78,3.71.28,4.64-1.03l.26.07.04,6.99-.05.17-4.1-1.17c1.63,2.87,2.77,6.15,1.96,8.97-.98,3.42-3.95,4.78-8.22,3.56l-11.79-3.37Z"/>
    <path d="M331.69,246.6l.25.1c-.68,1.69.68,2.38,3.31,3.43l11.79,4.72c2.64,1.06,3.66.65,4.72-.55l.25.1-.68,6.95-.07.16-17.73-7.1c-2.64-1.06-4.09-1.49-4.77.2l-.25-.1,3.17-7.92ZM359.29,258.66c1.48.59,2.2,2.27,1.59,3.79-.59,1.48-2.27,2.2-3.75,1.61-1.53-.61-2.24-2.29-1.65-3.77.61-1.53,2.29-2.24,3.81-1.63Z"/>
    <path d="M323.13,275.58c-2.52-1.32-3.92-1.9-4.76-.29l-.24-.12,3.96-7.55.24.12c-.85,1.61.43,2.43,2.95,3.75l9.68,5.07c2.75,1.44,5.13,1.89,6.59-.91.76-1.46,1.04-3.52.76-5.57l-12.78-6.7c-2.52-1.32-3.92-1.9-4.76-.29l-.24-.12,3.96-7.55.24.12c-.85,1.61.43,2.43,2.95,3.75l11.25,5.9c2.52,1.32,3.58,1.02,4.75-.07l.24.12-1.38,6.85-.08.16-3.78-1.98c1.01,3.14,1.46,6.58.1,9.18-1.65,3.15-4.84,3.88-8.78,1.82l-10.86-5.69Z"/>
    <path d="M313.9,289.64c-2.84,3.98-5.86,4.93-9.04,2.66-4.92-3.51-4.05-11.29-.49-16.28,3.15-4.41,7.06-5.22,9.77-3.29,1.95,1.39,2.13,3.59,1.53,6.11l-.17.7-.1.14c-.29-1.35-1.07-2.24-2.2-3.04-2.86-2.04-6.37-1.17-9,2.52-2.48,3.47-2.53,7.36.44,9.48,2.02,1.45,4.35.87,6.26-1.81l5.13-7.19c1.5-2.1,3.32-2.21,4.73-1.21,1.59,1.14,1.64,3.13,1.3,6.28,2.59-1.64,5.65-1.64,8.43.34,3.9,2.79,4.38,7.55,1.41,11.7-1.08,1.52-2.39,2.66-3.78,3.3l-3.38,6.42-1.52-2.07,3.25-3.79c-1.95.36-3.99-.07-5.91-1.43-3.9-2.79-4.43-7.47-1.44-11.67.75-1.05,1.56-1.88,2.47-2.55,0-1.69-.23-2.35-.85-2.79-.58-.41-1.3-.33-2.02.69l-4.83,6.76ZM328.03,288.65c-3.36-2.4-6.65-3.22-8.43-.72-1.75,2.46.09,5.3,3.45,7.7,3.36,2.4,6.61,3.19,8.37.74,1.75-2.46-.03-5.31-3.39-7.71Z"/>
    <path d="M308.16,307.86c1.15,1.11,1.19,2.99.09,4.14s-2.99,1.19-4.14.09-1.19-2.99-.09-4.14c1.11-1.15,2.99-1.19,4.14-.09Z"/>
    <path d="M274.66,328.28c-3.24-2.11-4.92-2.83-6.5-1.84l-.16-.21,9.02-6.92.16.21c-1.87,1.65-1.51,3.51.59,4.86l5.8,3.78,7.86-6.03-.78-2.48c-1.71-5.29-3.6-7.25-6.22-5.7l-.16-.21,5.92-4.54.16.21c-1.53,1.51-.6,4.55,1.13,9.94l7.75,24.34-.28.22-24.29-15.63ZM291.81,323.2l-7.3,5.59,11.52,7.51-4.22-13.1Z"/>
    <path d="M266.03,344.32c-9.95-5.89-14.85-8.4-16.26-8.02l-.13-.23c1.27-.91,2.28-1.47,3.13-1.95,2.87-1.6,5.21-.05,15.18,5.98l-1.67,5.86c-.72,2.54-.93,4.18-.32,5.26.54.97,1.58,1.1,2.4.75l.13.23-7.06,3.93-.13-.23c1.19-.97,2.74-4.93,4.28-10.11l.45-1.47ZM265.15,332.71c-1.38-2.48-2.24-3.74-3.83-2.85l-.13-.23,7.45-4.15.13.23c-1.59.89-.97,2.27.41,4.75l11.72,21.02c1.38,2.48,2.43,2.81,4.01,2.54l.13.23-5.08,4.66-.16.09-14.66-26.3Z"/>
    <path d="M233.56,348.52c-1.03-2.65-2.18-3.54-3.78-3.49l-.1-.25,4.88-3.51.17-.06,2.42,3.78c1.28-3.07,3.21-5.96,5.94-7.03,3.31-1.29,6.2.26,7.81,4.4l4.34,11.18c1.03,2.65,2.2,3.34,3.8,3.29l.1.25-6.11,3.04-.17.06-5.79-14.9c-1.13-2.9-2.62-4.79-5.56-3.65-1.53.59-3.1,1.96-4.24,3.69l5.13,13.21c1.03,2.65,2.2,3.34,3.8,3.29l.1.25-6.11,3.04-.17.06-6.47-16.64Z"/>
    <path d="M215.33,351.08c1.35-3.1,3.66-5.35,6.07-5.97,3.31-.86,5.66.42,6.67,4.33l4.04,15.65,2.24-.58.13.52-.54.41c-2.22,1.72-3.51,3.98-4.07,8.39l-.26.07-1.53-5.93-7.53,1.94.2-1.89,6.88-1.78-3.98-15.39c-.62-2.41-2.06-3.37-4.17-2.82-1.55.4-2.94,1.77-3.86,3.15l-.3-.11Z"/>
    <path d="M195.78,373.59l.54-4.71.26-.03c1.16.76,2.63,1.13,3.69,1.01.88-.1,1.81-.61,2.79-2.2l-1.56-13.68c-.32-2.82-.63-4.31-2.43-4.1l-.03-.26,8.47-.97.03.26c-1.81.21-1.77,1.72-1.45,4.55l1.44,12.62c.32,2.82,1.16,3.53,2.72,3.89l.03.26-6.44,2.7-.18.02-.54-4.72c-1.54,2.99-3.2,5.24-5.54,5.5-.57.07-1.16.04-1.81-.15Z"/>
    <path d="M174.14,353.33c.69-1.39,2.26-3.28,4.65-3.32,2.53-.04,3.1,2.08,3.21,3.72,1.7-2.25,4.33-3.85,6.87-3.89,3.06-.05,5.23,1.83,5.27,4.62.05,3.24-2.35,5.5-7.66,7.1l-4.11,1.22.05,3.15c.02,1.29.1,6.04,4.49,5.97,2.93-.05,5.07-2.12,6.36-4.72l.27.13c-.84,2.94-3.66,6.85-8.77,6.94-4.48.07-6.84-2.87-6.91-7.3l-.18-11.23c-.03-1.82-.1-3.29-1.47-3.26-.93.01-1.54.69-1.8,1.05l-.27-.17ZM189.73,380.88c.04,2.62-1.88,4.43-4.59,4.47-2.71.04-4.69-1.7-4.73-4.32-.04-2.62,1.88-4.43,4.59-4.47s4.69,1.7,4.73,4.32ZM182.23,354.08l.13,8.08,2.61-.93c3.71-1.35,4.75-2.7,4.71-5.32-.04-2.35-1.48-3.8-3.39-3.76-1.47.02-3,.98-4.06,1.93ZM187.73,380.91c-.04-2.31-.9-3.76-2.73-3.73-1.82.03-2.64,1.51-2.6,3.82.04,2.31.9,3.76,2.73,3.73,1.82-.03,2.64-1.51,2.6-3.82Z"/>
    <path d="M153.48,354.06c.34-2.82-.27-4.15-1.7-4.85l.03-.26,5.96-.81.18.02.35,4.16c1.9-2.05,4.36-3.6,7.41-3.23,5.03.6,8.17,5.71,7.36,12.59-.91,7.63-6.18,12.06-12.57,11.29-1.72-.21-3.21-.83-4.41-1.64l-.71,5.95c-.34,2.82.32,3.71,1.76,4.41l-.03.26-6.85.79-.18-.02,3.41-28.66ZM158.26,352.93l-1.44,12.08c-.47,3.97.82,6.99,3.91,7.35,4.1.49,6.56-4.36,7.21-9.88.7-5.86-.58-10.89-4.73-11.38-1.9-.23-3.57.65-4.96,1.82Z"/>
    <path d="M137.04,349.16c-4.73-1.24-6.69-3.73-5.69-7.51,1.54-5.84,9.12-7.79,15.05-6.23,5.24,1.38,7.39,4.75,6.54,7.97-.61,2.32-2.6,3.26-5.17,3.6l-.71.09-.17-.04c1.16-.75,1.71-1.8,2.06-3.13.89-3.39-1.17-6.37-5.55-7.52-4.12-1.09-7.78.25-8.71,3.77-.63,2.41.73,4.37,3.91,5.21l8.55,2.25c2.49.66,3.25,2.32,2.81,4-.5,1.89-2.35,2.64-5.41,3.45,2.46,1.84,3.54,4.7,2.67,8.01-1.22,4.64-5.5,6.77-10.44,5.47-1.8-.48-3.33-1.29-4.43-2.36l-7.21-.89,1.4-2.16,4.7,1.7c-1.02-1.69-1.35-3.75-.75-6.03,1.22-4.64,5.42-6.8,10.4-5.48,1.25.33,2.32.79,3.26,1.41,1.58-.59,2.11-1.05,2.31-1.78.18-.69-.16-1.33-1.36-1.64l-8.03-2.12ZM142.98,362.02c1.05-4,.65-7.36-2.31-8.14-2.92-.77-4.93,1.96-5.98,5.96-1.05,4-.64,7.32,2.28,8.09,2.92.77,4.96-1.91,6.01-5.9Z"/>
    <path d="M119.88,370.01c-.55,1.5-2.21,2.26-3.75,1.69-1.5-.55-2.26-2.21-1.71-3.71.57-1.54,2.23-2.3,3.73-1.75,1.54.57,2.3,2.22,1.73,3.77ZM131.21,342.09l-.09.25c-1.71-.63-2.36.74-3.34,3.4l-4.41,11.91c-.99,2.67-.56,3.68.68,4.7l-.09.25-6.97-.49-.17-.06,6.63-17.91c.99-2.67,1.39-4.13-.32-4.76l.09-.25,8,2.96Z"/>
    <path d="M99.75,354.01l-5.69-2.72.12-.24c1.48.41,3.13-.77,6.92-4.37l12.86-12.26.32.15-1.58,19.78c-.28,3.46-.29,5.13.96,6.02l-.12.24-8.25-3.95.11-.24c1.88.7,2.55-.6,2.77-2.91l1.25-13.73-7.76,7.47c-3.56,3.42-3.44,5.44-1.79,6.53l-.11.24Z"/>
    <path d="M85.06,323.3c1.56-2.38,2.27-3.71.75-4.71l.15-.22,7.13,4.67-.15.22c-1.52-1-2.46.19-4.02,2.57l-5.99,9.14c-1.7,2.6-2.38,4.92.26,6.65,1.37.9,3.4,1.38,5.47,1.3l7.91-12.08c1.56-2.38,2.27-3.71.75-4.71l.15-.22,7.13,4.67-.15.22c-1.52-1-2.46.19-4.02,2.57l-6.96,10.63c-1.56,2.38-1.36,3.46-.39,4.73l-.15.22-6.68-2.04-.15-.1,2.34-3.57c-3.22.7-6.7.82-9.15-.79-2.97-1.95-3.39-5.2-.96-8.91l6.72-10.25Z"/>
    <path d="M65.94,340.48c-1.01,1.24-2.82,1.43-4.1.4-1.24-1.01-1.43-2.82-.42-4.06,1.03-1.28,2.85-1.47,4.09-.46,1.28,1.04,1.47,2.85.43,4.12ZM85.63,317.68l-.17.21c-1.41-1.15-2.47-.06-4.26,2.15l-8,9.87c-1.79,2.21-1.71,3.3-.87,4.67l-.17.21-6.44-2.71-.14-.11,12.03-14.83c1.79-2.21,2.64-3.46,1.22-4.61l.17-.21,6.62,5.37Z"/>
    <path d="M60.47,300.92c2-2.02,2.97-3.18,1.68-4.46l.19-.19,6.05,6.01-.19.19c-1.29-1.28-2.45-.31-4.45,1.71l-7.7,7.75c-2.19,2.21-3.32,4.34-1.08,6.57,1.17,1.16,3.05,2.03,5.09,2.37l10.18-10.24c2-2.02,2.97-3.18,1.68-4.46l.19-.19,6.05,6.01-.19.19c-1.29-1.28-2.45-.31-4.45,1.71l-8.96,9.01c-2,2.02-2.03,3.11-1.34,4.56l-.19.19-6.13-3.34-.13-.12,3.01-3.02c-3.3.04-6.72-.55-8.8-2.61-2.52-2.5-2.28-5.77.85-8.92l8.64-8.69Z"/>
    <path d="M49.76,287.98c-2.96-3.88-2.98-7.06.12-9.43,4.8-3.67,11.99-.54,15.71,4.33,3.29,4.31,2.91,8.28.26,10.3-1.91,1.46-4.06.98-6.29-.34l-.62-.37-.11-.14c1.38.12,2.46-.37,3.55-1.2,2.79-2.13,2.99-5.75.24-9.35-2.59-3.39-6.29-4.58-9.19-2.38-1.98,1.51-2.11,3.9-.11,6.51l5.36,7.03c1.56,2.05,1.13,3.83-.24,4.88-1.55,1.19-3.48.64-6.38-.6.81,2.96-.09,5.88-2.81,7.96-3.81,2.91-8.5,1.96-11.6-2.1-1.13-1.48-1.84-3.07-2.05-4.58l-5.14-5.13,2.43-.85,2.67,4.22c.23-1.97,1.24-3.79,3.11-5.22,3.81-2.91,8.45-2.03,11.58,2.06.78,1.02,1.34,2.05,1.71,3.11,1.61.5,2.31.47,2.91.01.56-.43.69-1.14-.06-2.13l-5.04-6.6ZM46.54,301.78c3.28-2.51,5.04-5.41,3.18-7.84-1.83-2.4-5.09-1.48-8.38,1.03s-5,5.38-3.17,7.78,5.09,1.54,8.37-.97Z"/>
    <path d="M34.02,277.13c-1.4.78-3.21.26-3.99-1.14-.78-1.4-.26-3.21,1.14-3.99,1.4-.78,3.21-.26,3.99,1.14.78,1.4.26,3.21-1.14,3.99Z"/>
  </g>
  <path class="cls-1" d="M257.43,185.02c-2.3,0-4.27-1.76-4.48-4.09-.01-.13-1.91-16.19-22.18-36.57-20.25-20.37-36.21-22.28-36.36-22.3-2.46-.26-4.26-2.46-4.02-4.92.24-2.46,2.42-4.27,4.87-4.04.77.07,19.1,1.99,41.9,24.91,22.78,22.92,24.69,41.34,24.76,42.11.22,2.48-1.6,4.66-4.08,4.89-.14.01-.27.02-.41.02Z"/>
  <path class="cls-1" d="M231.36,179.78c-1.96,0-3.76-1.29-4.33-3.27,0-.01-2.12-6.58-11.9-16.42-9.77-9.83-16.29-11.96-16.36-11.98-2.39-.69-3.74-3.17-3.06-5.56.69-2.39,3.21-3.76,5.59-3.08.86.25,8.76,2.75,20.2,14.27,11.44,11.51,13.93,19.44,14.18,20.3.68,2.39-.71,4.88-3.1,5.56-.41.12-.83.17-1.23.17Z"/>
  <g>
    <polygon class="cls-2" points="206.68 229.28 210.69 233.11 210.69 233.11 206.68 229.28"/>
    <polygon class="cls-2" points="210.04 225.73 206.03 221.89 206.03 221.89 210.04 225.73"/>
    <polygon class="cls-2" points="227.86 223.24 225.1 228.06 225.1 228.06 227.86 223.24"/>
    <path class="cls-2" d="M241.96,231.39l-2.76,4.82,2.76-4.82Z"/>
    <polygon class="cls-2" points="245.93 256.96 249.94 260.79 249.94 260.79 245.93 256.96"/>
    <path class="cls-2" d="M235.45,268.05l-4.01-3.83,4.01,3.83Z"/>
    <path class="cls-2" d="M163.09,183.13l4.01,3.83-4.01-3.83Z"/>
    <path class="cls-2" d="M165.21,180.89l4.01,3.83-4.01-3.83Z"/>
    <polygon class="cls-2" points="167.11 186.96 169.22 184.72 161.2 177.05 159.08 179.29 167.11 186.96"/>
    <g>
      <path class="cls-2" d="M179.85,255.36c-7.26-4.59-14.98-10.79-22.89-19.17-28.59-30.27-33.38-55.81-33.98-67.01-.16-3.07-2.77-5.42-5.82-5.26s-5.39,2.79-5.23,5.85c.73,13.72,6.52,41.79,37.01,74.07,8.51,9.01,16.94,15.82,25.02,20.92,2.59,1.63,6,.85,7.63-1.75s.85-6.04-1.74-7.67Z"/>
      <g>
        <path class="cls-2" d="M169.22,184.72c7.14-7.56,7.64-19.38,1.66-27.89l-9.03,6.42c3.11,4.43,2.64,10.32-.65,13.8l8.02,7.66Z"/>
        <path class="cls-2" d="M225.13,267.78c-4.03.4-10.41.5-18.36-1.17-2.99-.63-5.92,1.3-6.55,4.31-.63,3.01,1.29,5.96,4.28,6.59,9.21,1.94,16.73,1.85,21.72,1.36,5.51-.55,9.97-3.5,13.24-6.97l10.48-11.09-8.02-7.66-10.48,11.09c-2.06,2.18-4.21,3.35-6.3,3.55Z"/>
        <path class="cls-2" d="M244.71,226.57l-14.09-8.16c-8.1-4.69-18.15-3.35-24.59,3.48l-3.01,3.19c-.2.07-.87.26-2.17.05-2.97-.49-9.38-3.12-19.94-14.31-10.53-11.15-13.12-18.02-13.62-21.4-.24-1.63,0-2.49.1-2.76.05-.15.09-.19.05-.14-.02.03-.05.08-.11.15-.03.04-.06.08-.1.12-.02.02-.04.05-.07.07-.01.01-.02.03-.04.04,0,0-.01.01-.02.02,0,0,0,0,0,.01t-4.02-3.82q-4.01-3.83-4.02-3.82s0,0-.01.01c0,0-.01.02-.02.02-.01.02-.03.03-.05.05-.03.03-.06.07-.1.11-.07.08-.14.17-.23.27-.16.21-.35.46-.54.76-.39.61-.8,1.41-1.16,2.41-.72,2.04-1.11,4.73-.62,8.1.96,6.62,5.28,15.52,16.54,27.45,11.23,11.89,19.71,16.57,26.19,17.63,3.32.54,6.01.11,8.04-.7.99-.39,1.78-.86,2.37-1.28.29-.21.54-.41.74-.58.1-.09.19-.17.26-.24.04-.04.07-.07.11-.1.02-.02.03-.03.05-.05,0,0,.01-.01.02-.02,0,0,0,0,.01-.01t-4-3.84c-.06-.06-.12-.11-.18-.17l4.19,4,3.36-3.56c2.84-3.01,7.27-3.69,11.05-1.5l14.09,8.16c6.05,3.51,7.24,12.13,2.72,16.91l8.02,7.66c9.62-10.19,6.82-27.25-5.22-34.22ZM202.68,225.44s0,0,0,0c0,0,0,0,.01-.01,0,0,.01-.01.02-.02,0,0,0,0,0,0l-.03.04Z"/>
      </g>
    </g>
  </g>
  <polygon class="cls-1" points="206.66 214.21 210.67 218.04 210.67 218.04 206.66 214.21"/>
  <polygon class="cls-1" points="210.02 210.65 206.01 206.82 206.01 206.82 210.02 210.65"/>
  <polygon class="cls-1" points="227.85 208.17 225.09 212.99 225.09 212.99 227.85 208.17"/>
  <path class="cls-1" d="M241.94,216.32l-2.76,4.82,2.76-4.82Z"/>
  <polygon class="cls-1" points="245.91 241.89 249.92 245.72 249.92 245.72 245.91 241.89"/>
  <path class="cls-1" d="M235.43,252.98l-4.01-3.83,4.01,3.83Z"/>
  <path class="cls-1" d="M225.66,258.24l.54,5.54-.54-5.54Z"/>
  <path class="cls-1" d="M152.93,224.95l4.01-3.83-4.01,3.83Z"/>
  <path class="cls-1" d="M163.08,168.06l4.01,3.83-4.01-3.83Z"/>
  <path class="cls-1" d="M165.19,165.82l4.01,3.83-4.01-3.83Z"/>
  <path class="cls-1" d="M166.35,144.97l4.52-3.21-4.52,3.21Z"/>
  <polygon class="cls-1" points="157.05 131.74 152.53 134.95 152.53 134.95 157.05 131.74"/>
  <path class="cls-1" d="M176.89,199.59l4.01-3.83-4.01,3.83Z"/>
  <polygon class="cls-1" points="167.09 171.89 169.2 169.65 161.18 161.98 159.07 164.22 167.09 171.89"/>
  <path class="cls-1" d="M179.83,240.29c-7.26-4.59-14.98-10.79-22.89-19.17-28.59-30.27-33.38-55.81-33.98-67.01-.16-3.07-2.77-5.42-5.82-5.26-3.05.16-5.39,2.79-5.23,5.85.73,13.72,6.52,41.79,37.01,74.07,8.51,9.01,16.94,15.82,25.02,20.92,2.59,1.63,6,.85,7.63-1.75s.85-6.04-1.74-7.67Z"/>
  <g>
    <path class="cls-1" d="M225.11,252.71c-4.03.4-10.41.5-18.36-1.17-2.99-.63-5.92,1.3-6.55,4.31-.63,3.01,1.29,5.96,4.28,6.59,9.21,1.94,16.73,1.85,21.72,1.36,5.51-.55,9.97-3.5,13.24-6.97l10.48-11.09-8.02-7.66-10.48,11.09c-2.06,2.18-4.21,3.35-6.3,3.55Z"/>
    <path class="cls-1" d="M161.18,161.98l8.02,7.66c7.14-7.56,7.64-19.38,1.66-27.89l-9.3-13.23c-7.48-10.63-22.43-12.43-31.48-2.85-2.1,2.23-2.01,5.75.2,7.87,2.22,2.12,5.72,2.03,7.82-.2,3.86-4.08,10.64-3.76,14.42,1.61l9.3,13.23c3.11,4.43,2.64,10.32-.65,13.8Z"/>
    <path class="cls-1" d="M244.7,211.5l-14.09-8.16c-8.1-4.69-18.15-3.35-24.59,3.48l-3.01,3.19c-.2.07-.87.26-2.17.05-2.97-.49-9.38-3.12-19.94-14.31-10.53-11.15-13.12-18.02-13.62-21.4-.24-1.63,0-2.49.1-2.76.05-.15.09-.19.05-.14-.02.03-.05.08-.11.15-.03.04-.06.08-.1.12-.02.02-.04.05-.07.07-.01.01-.02.03-.04.04,0,0-.01.01-.02.02,0,0,0,0,0,.01t-4.02-3.82q-4.01-3.83-4.02-3.82s0,0-.01.01c0,0-.01.02-.02.02-.01.02-.03.03-.04.05-.03.03-.06.07-.1.11-.07.08-.14.17-.23.27-.16.21-.35.46-.54.76-.39.61-.8,1.41-1.16,2.41-.72,2.04-1.11,4.73-.62,8.1.96,6.62,5.28,15.52,16.54,27.45,11.23,11.89,19.71,16.57,26.19,17.63,3.32.54,6.01.11,8.04-.7.99-.39,1.78-.86,2.37-1.28.29-.21.54-.41.74-.58.1-.09.19-.17.26-.24.04-.04.07-.07.11-.1.02-.02.03-.03.05-.05,0,0,.01-.01.02-.02,0,0,0,0,.01-.01,0,0,0-.02-3.79-3.64l3.8,3.63,3.36-3.56c2.84-3.01,7.27-3.69,11.05-1.5l14.09,8.16c6.05,3.51,7.24,12.13,2.72,16.91l8.02,7.66c9.62-10.19,6.82-27.25-5.22-34.22ZM202.66,210.37s0,0,0,0c0,0,0,0,.01-.01,0,0,.01-.01.02-.02,0,0,0,0,0,0l-.04.04Z"/>
  </g>
  <path class="cls-1" d="M296.73,163.57l4.01-3.83-4.01,3.83Z"/>
  <path class="cls-1" d="M320.69,138.21l4.01-3.83-4.01,3.83Z"/>
</svg>