<?xml version="1.0" encoding="UTF-8"?>
<svg id="Layer_1" data-name="Layer 1" xmlns="http://www.w3.org/2000/svg" viewBox="0 0 376.28 387.24">
  <defs>
    <style>
      .cls-1 {
        fill: #45484c;
      }

      .cls-2 {
        fill: #6adecf;
      }
    </style>
  </defs>
  <g>
    <path d="M13.81,168.41c-1.58-.26-2.68-1.79-2.42-3.37s1.79-2.68,3.37-2.42c1.58.26,2.68,1.79,2.42,3.37s-1.79,2.68-3.37,2.42Z"/>
    <path d="M27.69,153.81l-7.07-1.95.08-.25c5.93-.18,9.65-2.22,10.89-6.16,1.06-3.35-.25-7.02-4.11-8.24s-6.43,1.32-9.29,4.33l-1.74,1.83c-2.29,2.4-5.25,4.82-9.99,3.32-5.04-1.59-7.62-6.41-5.97-11.62.74-2.33,2.53-5.35,4.1-7.09l5.51,1.74-.08.25c-5.18.46-8,2.32-9.02,5.54-1.08,3.43.51,6.36,3.94,7.44,3.56,1.12,5.73-1.17,7.81-3.35l1.74-1.83c2.99-3.11,6.09-6,11.3-4.35,5.34,1.69,8.06,6.93,6.19,12.86-.78,2.46-2.65,5.87-4.29,7.54Z"/>
    <path d="M40.7,116.4c.95,1.22,1.98,3.45.98,5.63-1.06,2.3-3.22,1.89-4.75,1.29,1.29,2.5,1.59,5.57.53,7.87-1.28,2.78-3.91,3.92-6.45,2.75-2.95-1.36-3.94-4.5-3.08-9.98l.68-4.23-2.86-1.32c-1.17-.54-5.49-2.53-7.33,1.47-1.23,2.66-.28,5.49,1.5,7.78l-.23.19c-2.29-2.03-4.59-6.27-2.46-10.91,1.88-4.07,5.54-4.93,9.58-3.07l10.21,4.7c1.65.76,3,1.33,3.58.08.39-.85.04-1.69-.17-2.08l.27-.17ZM36.52,123.37l-7.34-3.38-.29,2.75c-.39,3.93.37,5.45,2.75,6.55,2.14.98,4.06.31,4.86-1.43.61-1.33.42-3.13.01-4.49Z"/>
    <path d="M57.34,87.8c2.34,1.61,3.66,2.36,4.69.86l.22.15-4.83,7.03-.22-.15c1.03-1.5-.14-2.47-2.48-4.08l-9-6.19c-2.56-1.76-4.87-2.48-6.65.12-.93,1.35-1.47,3.47-1.2,5.27.59.24,1.2.61,1.82,1.04l10.1,6.94c2.34,1.61,3.66,2.36,4.69.86l.22.15-4.83,7.03-.22-.15c1.03-1.5-.14-2.47-2.48-4.08l-9-6.19c-2.56-1.76-4.87-2.48-6.66.12-.91,1.32-1.44,3.27-1.24,5.02l11.97,8.23c2.34,1.61,3.66,2.36,4.69.85l.22.15-4.83,7.03-.22-.15c1.03-1.5-.14-2.47-2.48-4.08l-10.47-7.2c-2.34-1.61-3.43-1.44-4.72-.5l-.22-.15,2.19-6.63.1-.15,3.4,2.34c-.76-2.89-.79-6.31.85-8.69,1.61-2.34,4.04-3.05,6.83-1.94-.91-2.99-.99-6.56.72-9.05,2.01-2.93,5.27-3.28,8.93-.76l10.1,6.94Z"/>
    <path d="M70.58,75.76c.51,3.35-.25,6.48-1.96,8.29-2.35,2.49-5.01,2.66-7.95-.12l-11.76-11.1-1.59,1.68-.39-.37.23-.63c.96-2.64.85-5.24-1.02-9.27l.18-.19,4.46,4.21,5.34-5.65.83,1.7-4.88,5.17,11.56,10.91c1.81,1.71,3.54,1.75,5.03.17,1.1-1.16,1.55-3.06,1.59-4.73l.31-.07Z"/>
    <path d="M85.91,63.89c.36,1.51.36,3.96-1.46,5.53-1.92,1.65-3.71.38-4.85-.81.13,2.81-.88,5.73-2.8,7.38-2.32,2-5.19,1.94-7.01-.19-2.11-2.46-1.71-5.74,1.35-10.35l2.38-3.57-2.05-2.39c-.84-.98-3.93-4.58-7.27-1.72-2.22,1.91-2.54,4.88-1.88,7.7l-.29.07c-1.24-2.8-1.56-7.61,2.31-10.94,3.4-2.92,7.09-2.17,9.99,1.2l7.32,8.52c1.19,1.38,2.17,2.46,3.22,1.57.71-.61.75-1.52.72-1.96l.32-.04ZM79.19,68.48l-5.27-6.13-1.41,2.38c-1.99,3.41-1.93,5.11-.22,7.1,1.53,1.79,3.57,1.97,5.01.73,1.11-.95,1.68-2.67,1.88-4.08Z"/>
    <path d="M87.68,66.29l-.15-.22c1.48-1.06.71-2.36-.94-4.68l-13.98-19.6c-1.65-2.31-2.73-2.53-4.27-2.08l-.15-.22,4.53-5.2.14-.1,17.48,24.52c1.65,2.31,2.64,3.47,4.12,2.41l.15.22-6.94,4.95Z"/>
    <path d="M109.07,46.28c.03,3.32-.79,7.39-4.93,9.81-5.38,3.13-11.1.35-14.39-5.3-3.62-6.22-2.23-13.19,3.03-16.25,4.26-2.48,8.98-1.27,11.58,3.74l-12.17,7.08c.18.41.43.83.65,1.21,3.28,5.64,7.65,8.65,11.92,6.17,2.5-1.45,3.79-4,3.99-6.48l.32.02ZM91.92,44.7l8.22-4.78c-2.06-4.25-4.5-6.32-7.23-4.74-2.88,1.67-2.68,5.72-.99,9.52Z"/>
    <path d="M121.33,9.71l1.02,3.84-.25.1c-2.37-.94-4.19-1.46-5.27-1.04-1.74.68-1.94,2.85-.47,6.62l1.55,3.97,5.34-2.08.07,1.88-4.76,1.86,6.13,15.73c1.03,2.65,1.71,4.01,3.4,3.34l.1.25-7.95,3.1-.1-.25c1.7-.66,1.27-2.12.24-4.77l-6.13-15.73-2.15.84-.19-.5,1.7-2c-2.52-6.46-.43-12.23,4.82-14.28.7-.27,2.1-.72,2.89-.89Z"/>
    <path d="M127.48,31.81c-1.95-7.11,1.21-13.04,7.38-14.74,6.25-1.72,11.76,1.56,13.74,8.76,1.95,7.11-1.21,13.04-7.38,14.74-6.25,1.72-11.76-1.56-13.74-8.76ZM143.82,27.23c-1.67-6.08-4.94-10.62-8.88-9.54-3.94,1.08-4.42,6.37-2.68,12.71,1.67,6.08,4.94,10.62,8.88,9.54,3.94-1.08,4.42-6.37,2.68-12.71Z"/>
    <path d="M163.52,11.83l-.37,4.73-.26.04c-1.19-.72-2.67-1.04-3.72-.88-.88.13-1.79.67-2.71,2.29l2.05,13.61c.42,2.81.78,4.28,2.58,4.01l.04.26-8.43,1.27-.04-.26c1.8-.27,1.71-1.78,1.28-4.59l-1.89-12.56c-.42-2.81-1.29-3.49-2.86-3.79l-.04-.26,6.34-2.93.18-.03.71,4.7c1.43-3.04,3.01-5.35,5.34-5.7.57-.09,1.16-.08,1.81.09Z"/>
    <path d="M167.18,35.13l-.02-.27c1.82-.13,1.84-1.65,1.63-4.49l-1.78-24.01c-.21-2.83-1.02-3.58-2.57-4l-.02-.27L170.99.01h.18s2.22,30.02,2.22,30.02c.21,2.83.45,4.33,2.27,4.2l.02.27-8.5.63Z"/>
    <path d="M195.14,13.12c2.48,2.11,3.9,5.52,3.78,9.88-.19,7.37-4.94,12.13-11.34,11.96-2.44-.07-4.56-.79-6.26-2.03l-2.4,3.49-.61-.42,2.45-3.53c-2.48-2.11-3.9-5.52-3.78-9.88.2-7.37,4.94-12.13,11.34-11.96,2.44.06,4.56.79,6.26,2.03l2.4-3.49.61.42-2.45,3.53ZM182.75,29.59l10.07-14.44c-.92-2.33-2.43-3.84-4.61-3.9-4.08-.11-6.08,4.82-6.26,11.39-.07,2.58.18,4.98.79,6.95ZM193.95,22.95c.07-2.58-.18-4.98-.79-6.95l-10.07,14.44c.92,2.33,2.43,3.84,4.61,3.9,4.08.11,6.08-4.82,6.26-11.39Z"/>
    <path d="M222.95,26.46c-1.29,7.57-6.77,11.73-13.12,10.65-2.85-.48-5.01-2.07-6.3-4l-2.37,2.25-.35-.06,4.86-28.54c.48-2.8-.13-3.72-1.53-4.5l.04-.26,6.88-.45.18.03-2.51,14.71c1.99-1.91,4.52-3.28,7.5-2.78,4.99.85,7.88,6.12,6.71,12.95ZM217.81,27.02c.99-5.82-.03-10.91-4.15-11.61-1.88-.32-3.59.47-5.04,1.57l-2.04,12c-.67,3.94.47,7.02,3.53,7.54,4.07.69,6.77-4.03,7.7-9.5Z"/>
    <path d="M234.45,29.8c.5-1.52,2.19-2.36,3.7-1.86,1.52.5,2.36,2.19,1.86,3.7-.5,1.52-2.19,2.36-3.7,1.86-1.52-.5-2.36-2.19-1.86-3.7Z"/>
    <path d="M246.69,45.8l3.04-6.68.24.12c-.75,5.88.68,9.87,4.37,11.72,3.14,1.57,6.97.85,8.78-2.76,1.81-3.62-.3-6.56-2.82-9.85l-1.53-2.01c-2.01-2.64-3.94-5.94-1.71-10.39,2.36-4.73,7.53-6.52,12.41-4.08,2.19,1.09,4.89,3.34,6.36,5.16l-2.58,5.17-.24-.12c.36-5.18-1.04-8.26-4.06-9.77-3.22-1.61-6.36-.5-7.96,2.72-1.67,3.34.26,5.84,2.09,8.24l1.53,2.01c2.6,3.44,4.97,6.95,2.53,11.84-2.5,5.01-8.1,6.88-13.67,4.1-2.3-1.15-5.38-3.53-6.78-5.42Z"/>
    <path d="M281.59,64.49c-1.36.75-3.72,1.42-5.72.09-2.11-1.4-1.37-3.47-.53-4.89-2.67.89-5.75.7-7.86-.7-2.55-1.7-3.26-4.47-1.71-6.8,1.8-2.7,5.06-3.19,10.34-1.49l4.08,1.33,1.75-2.62c.71-1.07,3.35-5.03-.31-7.47-2.44-1.63-5.38-1.13-7.92.27l-.15-.26c2.37-1.95,6.91-3.56,11.16-.73,3.73,2.49,4,6.25,1.54,9.94l-6.23,9.35c-1.01,1.52-1.79,2.76-.64,3.52.78.52,1.66.31,2.08.16l.12.29ZM275.36,59.27l4.48-6.73-2.67-.71c-3.82-1-5.45-.48-6.9,1.7-1.31,1.96-.94,3.97.65,5.03,1.22.81,3.03.9,4.44.71Z"/>
    <path d="M307.25,85.35c-1.95,2.06-2.9,3.25-1.57,4.5l-.18.19-6.19-5.86.18-.19c1.32,1.25,2.46.25,4.41-1.82l7.51-7.94c2.14-2.26,3.21-4.42.92-6.59-1.19-1.13-3.2-1.99-5.02-2-.33.54-.79,1.09-1.31,1.64l-8.43,8.9c-1.95,2.06-2.9,3.25-1.57,4.5l-.18.19-6.19-5.86.18-.19c1.32,1.25,2.46.25,4.41-1.82l7.51-7.94c2.14-2.26,3.21-4.42.92-6.59-1.16-1.1-3.01-1.93-4.77-2l-9.98,10.55c-1.95,2.06-2.9,3.25-1.57,4.5l-.18.19-6.19-5.86.18-.19c1.32,1.25,2.46.25,4.41-1.82l8.73-9.23c1.95-2.06,1.96-3.16,1.23-4.59l.18-.19,6.21,3.19.13.12-2.84,3c2.98-.3,6.35.2,8.45,2.19,2.06,1.95,2.38,4.46.85,7.05,3.1-.43,6.63.04,8.82,2.11,2.58,2.44,2.42,5.71-.63,8.94l-8.43,8.9Z"/>
    <path d="M317.11,100.3c-3.38-.02-6.36-1.25-7.88-3.22-2.09-2.7-1.85-5.36,1.34-7.84l12.78-9.9-1.41-1.83.42-.33.59.33c2.46,1.36,5.04,1.65,9.32.42l.16.21-4.85,3.75,4.76,6.14-1.81.56-4.35-5.62-12.57,9.73c-1.97,1.52-2.28,3.22-.94,4.95.98,1.26,2.78,2,4.42,2.3l.02.32Z"/>
    <path d="M326.46,117.28c-1.54.12-3.97-.26-5.23-2.3-1.33-2.15.2-3.73,1.55-4.67-2.8-.31-5.52-1.75-6.86-3.91-1.61-2.61-1.11-5.42,1.27-6.9,2.76-1.71,5.93-.79,10.02,2.94l3.15,2.91,2.68-1.66c1.1-.68,5.14-3.18,2.83-6.92-1.54-2.49-4.42-3.27-7.32-3.05l-.03-.3c2.96-.79,7.77-.36,10.45,3.98,2.36,3.82,1.04,7.35-2.73,9.68l-9.56,5.91c-1.55.96-2.77,1.77-2.05,2.94.49.79,1.38.97,1.83,1.01v.32ZM322.96,109.94l6.88-4.25-2.13-1.76c-3.06-2.5-4.75-2.7-6.98-1.32-2,1.24-2.5,3.22-1.5,4.84.77,1.25,2.38,2.08,3.74,2.49Z"/>
    <path d="M323.82,118.68l.24-.12c.81,1.63,2.22,1.08,4.77-.19l21.54-10.74c2.54-1.27,2.92-2.3,2.73-3.89l.24-.12,4.42,5.29.08.16-26.95,13.44c-2.54,1.27-3.84,2.06-3.02,3.69l-.24.12-3.81-7.63Z"/>
    <path d="M340.23,142.9c-3.29-.49-7.18-1.93-8.92-6.4-2.25-5.8,1.39-11.02,7.48-13.38,6.71-2.6,13.38-.14,15.58,5.53,1.78,4.6-.15,9.06-5.51,10.86l-5.09-13.13c-.43.12-.89.3-1.3.46-6.09,2.36-9.74,6.21-7.96,10.81,1.04,2.69,3.36,4.37,5.78,4.95l-.07.31ZM344.47,126.2l3.44,8.86c4.52-1.37,6.95-3.46,5.81-6.4-1.21-3.11-5.23-3.54-9.25-2.46Z"/>
    <path d="M374.43,160.77l-3.96.41-.06-.26c1.29-2.19,2.1-3.91,1.86-5.04-.4-1.82-2.51-2.36-6.46-1.5l-4.17.91,1.22,5.6-1.87-.23-1.09-4.99-16.49,3.6c-2.78.61-4.22,1.06-3.84,2.84l-.26.06-1.82-8.33.26-.06c.39,1.78,1.89,1.59,4.67.98l16.49-3.59-.49-2.26.52-.11,1.71,1.99c6.77-1.48,12.14,1.49,13.35,7,.16.74.39,2.19.43,3Z"/>
    <path d="M351.63,163.35c7.33-.82,12.7,3.23,13.41,9.59.72,6.45-3.38,11.37-10.79,12.2-7.33.82-12.7-3.23-13.41-9.59-.72-6.44,3.38-11.37,10.79-12.2ZM353.6,180.2c6.27-.7,11.26-3.22,10.81-7.29-.45-4.06-5.6-5.36-12.14-4.63-6.27.7-11.26,3.22-10.81,7.29.45,4.06,5.6,5.36,12.14,4.63Z"/>
    <path d="M365.68,202.22l-4.6-1.14v-.27c.91-1.05,1.47-2.46,1.48-3.53.01-.89-.37-1.87-1.82-3.05l-13.77-.22c-2.84-.05-4.35.06-4.38,1.88h-.27s.14-8.53.14-8.53h.27c-.03,1.83,1.48,1.98,4.32,2.03l12.7.21c2.84.05,3.65-.7,4.21-2.2h.27s1.85,6.74,1.85,6.74v.18s-4.75-.08-4.75-.08c2.77,1.91,4.78,3.85,4.74,6.21,0,.58-.11,1.15-.38,1.77Z"/>
    <path d="M342.18,202.09l.27.02c-.15,1.81,1.35,2.07,4.18,2.3l23.99,1.94c2.83.23,3.69-.46,4.34-1.92l.27.02,1.05,6.81v.18s-30.03-2.42-30.03-2.42c-2.83-.23-4.35-.22-4.5,1.6l-.27-.02.69-8.5Z"/>
    <path d="M359.6,233.13c-2.47,2.12-6.06,2.99-10.34,2.2-7.25-1.34-11.22-6.77-10.06-13.05.44-2.4,1.48-4.38,2.98-5.86l-3.07-2.92.51-.54,3.11,2.97c2.47-2.12,6.06-2.99,10.34-2.2,7.25,1.34,11.22,6.76,10.06,13.05-.44,2.4-1.48,4.38-2.98,5.86l3.07,2.92-.51.54-3.11-2.97ZM350.07,230.42c2.53.47,4.95.6,6.99.3l-12.7-12.19c-2.45.54-4.17,1.8-4.57,3.94-.74,4.02,3.81,6.75,10.27,7.95ZM345.26,218.33l12.7,12.19c2.45-.54,4.17-1.8,4.57-3.94.74-4.02-3.81-6.75-10.27-7.95-2.53-.47-4.95-.6-6.99-.3Z"/>
    <path d="M342.07,258.51c-7.28-2.46-10.52-8.53-8.46-14.63.93-2.73,2.83-4.62,4.94-5.59l-1.86-2.69.11-.34,27.43,9.28c2.69.91,3.69.45,4.68-.81l.25.08-.64,6.87-.06.17-14.14-4.78c1.58,2.27,2.53,4.98,1.57,7.84-1.62,4.8-7.28,6.82-13.84,4.6ZM342.32,253.34c5.6,1.89,10.78,1.68,12.12-2.28.61-1.81.1-3.62-.76-5.23l-11.53-3.9c-3.79-1.28-7.01-.64-8,2.31-1.32,3.91,2.92,7.32,8.17,9.1Z"/>
    <path d="M336.98,269.33c1.42.73,1.99,2.53,1.26,3.95s-2.53,1.99-3.95,1.26c-1.42-.73-1.99-2.53-1.26-3.95.73-1.42,2.53-1.99,3.95-1.26Z"/>
    <path d="M319.26,278.92l6.12,4.04-.15.22c-5.69-1.66-9.86-.87-12.26,2.49-2.04,2.86-1.93,6.75,1.36,9.1,3.29,2.35,6.52.73,10.17-1.25l2.22-1.2c2.92-1.57,6.48-2.96,10.53-.07,4.3,3.07,5.26,8.45,2.09,12.9-1.42,1.99-4.06,4.31-6.09,5.47l-4.7-3.35.15-.22c5.07,1.16,8.32.27,10.28-2.48,2.09-2.93,1.48-6.2-1.45-8.29-3.04-2.17-5.81-.65-8.47.78l-2.22,1.2c-3.8,2.04-7.64,3.82-12.09.65-4.55-3.25-5.53-9.07-1.91-14.14,1.5-2.1,4.33-4.77,6.41-5.85Z"/>
    <path d="M295.36,310.49c-.53-1.46-.82-3.9.8-5.66,1.71-1.86,3.64-.81,4.91.24-.46-2.78.2-5.79,1.91-7.66,2.08-2.25,4.92-2.53,6.98-.64,2.39,2.2,2.37,5.5-.13,10.44l-1.95,3.82,2.32,2.13c.95.87,4.44,4.09,7.42.85,1.98-2.16,1.96-5.14.96-7.87l.28-.11c1.56,2.64,2.44,7.38-1.01,11.14-3.04,3.3-6.79,2.99-10.06-.02l-8.27-7.61c-1.34-1.23-2.45-2.19-3.38-1.18-.63.69-.56,1.59-.48,2.03l-.31.08ZM301.49,305.15l5.95,5.47,1.12-2.53c1.58-3.62,1.32-5.3-.61-7.08-1.73-1.59-3.77-1.54-5.07-.13-.99,1.08-1.36,2.85-1.39,4.27Z"/>
    <path d="M270.76,332.63c-1.74-2.25-2.76-3.36-4.21-2.25l-.16-.21,6.75-5.21.16.21c-1.44,1.11-.62,2.39,1.11,4.64l6.67,8.65c1.9,2.46,3.87,3.85,6.37,1.93,1.3-1,2.46-2.85,2.75-4.65-.49-.41-.95-.95-1.42-1.54l-7.49-9.7c-1.74-2.25-2.76-3.36-4.21-2.25l-.16-.21,6.75-5.21.16.21c-1.44,1.11-.62,2.39,1.11,4.64l6.67,8.65c1.9,2.46,3.87,3.85,6.37,1.93,1.27-.98,2.37-2.67,2.72-4.4l-8.87-11.5c-1.74-2.25-2.76-3.36-4.21-2.25l-.16-.21,6.75-5.21.16.21c-1.44,1.11-.62,2.39,1.11,4.64l7.76,10.05c1.74,2.25,2.82,2.42,4.34,1.92l.16.21-4.12,5.64-.14.11-2.52-3.27c-.16,2.99-1.18,6.24-3.47,8.01-2.25,1.74-4.77,1.66-7.09-.25-.05,3.13-1.06,6.54-3.46,8.39-2.81,2.17-6.02,1.5-8.73-2.01l-7.49-9.7Z"/>
    <path d="M254.47,340.04c.54-3.34,2.23-6.09,4.41-7.29,3-1.65,5.59-.99,7.54,2.55l7.79,14.17,2.02-1.11.26.47-.42.53c-1.72,2.21-2.42,4.73-1.87,9.14l-.23.13-2.95-5.37-6.81,3.75-.27-1.88,6.23-3.42-7.66-13.94c-1.2-2.18-2.83-2.75-4.74-1.7-1.4.77-2.41,2.44-2.96,4.01l-.32-.03Z"/>
    <path d="M236.25,346.61c.12-1.54.88-3.88,3.09-4.81,2.34-.98,3.65.78,4.37,2.26.74-2.72,2.6-5.18,4.93-6.16,2.83-1.18,5.53-.25,6.61,2.33,1.25,2.99-.14,5.98-4.47,9.44l-3.36,2.66,1.22,2.91c.5,1.19,2.33,5.57,6.39,3.87,2.7-1.13,3.92-3.86,4.16-6.75l.3.02c.31,3.05-.86,7.73-5.57,9.7-4.14,1.73-7.42-.12-9.14-4.21l-4.34-10.37c-.7-1.68-1.31-3.01-2.58-2.48-.86.36-1.18,1.22-1.28,1.65l-.31-.06ZM244.05,344.3l3.12,7.46,2.07-1.83c2.94-2.63,3.41-4.27,2.4-6.69-.91-2.17-2.79-2.97-4.55-2.24-1.35.57-2.43,2.03-3.05,3.3Z"/>
    <path d="M235.28,343.78l.08.25c-1.74.55-1.41,2.03-.56,4.74l7.24,22.96c.85,2.71,1.81,3.25,3.42,3.3l.08.25-5.92,3.54-.17.05-9.05-28.72c-.85-2.71-1.44-4.11-3.17-3.56l-.08-.25,8.13-2.56Z"/>
    <path d="M208.77,356.19c1-3.17,3.03-6.79,7.72-7.8,6.08-1.31,10.67,3.1,12.04,9.49,1.52,7.03-1.96,13.23-7.91,14.52-4.82,1.04-8.93-1.57-9.86-7.14l13.76-2.97c-.05-.44-.15-.92-.25-1.36-1.38-6.38-4.6-10.59-9.42-9.55-2.82.61-4.84,2.63-5.8,4.93l-.3-.12ZM224.6,363l-9.29,2c.65,4.68,2.32,7.4,5.41,6.74,3.26-.7,4.32-4.61,3.88-8.74Z"/>
    <path d="M185.83,387.19l.21-3.97.27-.02c1.96,1.62,3.54,2.68,4.69,2.62,1.86-.11,2.72-2.12,2.49-6.15l-.25-4.26-5.72.33.52-1.81,5.1-.3-.99-16.85c-.17-2.84-.39-4.34-2.21-4.23l-.02-.27,8.51-.5.02.27c-1.82.11-1.86,1.62-1.7,4.46l.99,16.85,2.31-.13.03.53-2.23,1.38c.4,6.92-3.36,11.77-8.99,12.09-.75.04-2.22.04-3.03-.04Z"/>
    <path d="M186.8,364.26c-.32,7.37-5.15,12.05-11.54,11.77-6.48-.28-10.72-5.09-10.39-12.54.32-7.37,5.15-12.05,11.54-11.77,6.48.28,10.72,5.09,10.39,12.54ZM169.85,363.61c-.27,6.3,1.45,11.62,5.53,11.8,4.08.18,6.16-4.71,6.45-11.28.27-6.3-1.45-11.62-5.53-11.8s-6.16,4.71-6.45,11.28Z"/>
    <path d="M146.36,372.26l1.79-4.39.26.04c.91,1.05,2.23,1.8,3.28,1.97.88.14,1.91-.09,3.28-1.36l2.21-13.59c.46-2.81.57-4.32-1.23-4.61l.04-.26,8.42,1.37-.04.26c-1.8-.29-2.17,1.18-2.63,3.98l-2.04,12.54c-.46,2.81.16,3.72,1.57,4.48l-.04.26-6.93.85-.18-.03.76-4.69c-2.29,2.46-4.5,4.17-6.83,3.79-.57-.09-1.13-.27-1.7-.64Z"/>
    <path d="M150.02,348.96l-.06.26c-1.77-.43-2.25,1.01-2.92,3.77l-5.65,23.4c-.67,2.76-.12,3.72,1.22,4.59l-.06.26-6.89-.02-.17-.04,7.07-29.27c.67-2.76.89-4.26-.88-4.69l.06-.26,8.29,2Z"/>
    <path d="M116.64,361.3c-1.71-2.77-2-6.46-.55-10.56,2.46-6.95,8.44-10.02,14.47-7.89,2.3.81,4.09,2.15,5.32,3.86l3.36-2.58.45.58-3.42,2.61c1.71,2.77,2,6.46.55,10.56-2.46,6.95-8.44,10.02-14.47,7.89-2.3-.81-4.09-2.15-5.32-3.86l-3.36,2.58-.45-.58,3.42-2.61ZM120.8,352.32c-.86,2.43-1.36,4.79-1.39,6.86l14.03-10.63c-.15-2.5-1.13-4.4-3.18-5.13-3.85-1.36-7.27,2.71-9.46,8.9ZM133.5,349.46l-14.03,10.63c.15,2.5,1.13,4.4,3.18,5.13,3.85,1.36,7.27-2.71,9.46-8.9.86-2.43,1.36-4.79,1.39-6.86Z"/>
    <path d="M94.3,340.01c3.57-6.8,10.07-9.06,15.77-6.06,2.56,1.34,4.12,3.52,4.75,5.76l2.95-1.41.31.17-13.46,25.64c-1.32,2.52-1.02,3.58.06,4.75l-.12.24-6.68-1.7-.16-.08,6.94-13.21c-2.49,1.2-5.32,1.72-7.99.32-4.48-2.35-5.6-8.26-2.38-14.39ZM99.37,341.07c-2.75,5.23-3.34,10.38.35,12.32,1.69.89,3.56.67,5.28.06l5.66-10.77c1.86-3.54,1.72-6.82-1.03-8.26-3.66-1.92-7.68,1.73-10.26,6.65Z"/>
    <path d="M84.41,333.29c-.95,1.29-2.81,1.57-4.1.63-1.29-.95-1.57-2.81-.63-4.1.95-1.29,2.81-1.57,4.1-.63s1.57,2.81.63,4.1Z"/>
  </g>
  <g id="SVGRepo_iconCarrier" data-name="SVGRepo iconCarrier">
    <path class="cls-2" d="M263.1,175.35h-18.41c2.5,3.22,4.01,7.25,4.01,11.63v39.5c0,10.44-8.55,18.98-18.98,18.98h-46.38c2.46,6.31,8.59,10.81,15.76,10.81h63.99c9.28,0,16.9-7.59,16.9-16.9v-47.11c-.02-9.3-7.61-16.9-16.9-16.9Z"/>
    <path class="cls-1" d="M241.7,215.78v-60.29c0-15.11-12.36-27.47-27.47-27.47h-91.13c-15.11,0-27.47,12.36-27.47,27.47v60.29c0,14.35,11.16,26.2,25.21,27.36,0,0-4.07,31.64,1,31.64s38.36-31.54,38.36-31.54h54.01c15.13,0,27.49-12.36,27.49-27.47h0ZM155.35,231.03l-3.54,3.34c-.06.06-7.02,6.66-14.9,13.66-1.73,1.53-3.3,2.91-4.74,4.17.39-4.26.79-7.45.79-7.49l1.63-12.68-12.75-1.06c-7.84-.65-13.99-7.33-13.99-15.19v-60.29c0-4.05,1.59-7.86,4.5-10.75,2.89-2.89,6.72-4.5,10.75-4.5h91.13c4.05,0,7.86,1.59,10.75,4.5,2.89,2.89,4.5,6.72,4.5,10.75v60.29c0,4.05-1.59,7.86-4.5,10.75-2.89,2.89-6.72,4.5-10.75,4.5h-58.88Z"/>
    <path class="cls-1" d="M251.8,166c-3.3-.67-6.54,1.45-7.21,4.74-.67,3.3,1.45,6.54,4.74,7.21,7.94,1.63,13.7,8.69,13.7,16.8v36.04c0,8.47-6.33,15.78-14.72,16.98l-6.66.96,1.59,6.54c.41,1.65.79,3.42,1.18,5.15-3.58-3.34-7.59-7.17-11.24-10.73l-1.77-1.75h-34.14c-4.46,0-7.45-.29-9.61-1.75-2.79-1.89-6.6-1.18-8.49,1.61-1.89,2.79-1.18,6.6,1.61,8.49,5.23,3.56,11.26,3.87,16.49,3.87h29.16c2.04,1.97,5.56,5.35,9.16,8.71,3.3,3.07,6.03,5.52,8.1,7.31,4.07,3.46,5.97,4.7,8.47,4.7,1.97,0,3.81-.9,5.05-2.46,2.06-2.63,2.08-5.92.1-16.02-.29-1.47-.59-2.89-.88-4.19,11.08-4.3,18.81-15.13,18.81-27.4v-36.04c.02-13.84-9.85-25.94-23.45-28.75h0Z"/>
  </g>
</svg>