<?xml version="1.0" encoding="UTF-8"?>
<svg id="Layer_1" data-name="Layer 1" xmlns="http://www.w3.org/2000/svg" xmlns:xlink="http://www.w3.org/1999/xlink" viewBox="0 0 55 29.42">
  <defs>
    <style>
      .cls-1, .cls-2, .cls-3, .cls-4, .cls-5 {
        fill: none;
      }

      .cls-2, .cls-3 {
        stroke: #34bfb1;
      }

      .cls-2, .cls-3, .cls-4, .cls-5 {
        stroke-linecap: round;
        stroke-width: 3px;
      }

      .cls-2, .cls-5 {
        stroke-linejoin: round;
      }

      .cls-4, .cls-5 {
        stroke: #fffaf4;
      }

      .cls-6 {
        clip-path: url(#clippath);
      }
    </style>
    <clipPath id="clippath">
      <rect class="cls-1" width="55" height="29"/>
    </clipPath>
  </defs>
  <g class="cls-6">
    <g>
      <path class="cls-3" d="M19.93,19.95c0-4.2,3.38-7.6,7.54-7.6s7.54,3.4,7.54,7.6v.76"/>
      <path class="cls-2" d="M27.48,12.36c2.5,0,4.52-2.04,4.52-4.56s-2.03-4.56-4.52-4.56-4.52,2.04-4.52,4.56,2.03,4.56,4.52,4.56Z"/>
      <path class="cls-4" d="M3.07,27.92v-1.52c0-5.88,4.73-10.64,10.56-10.64s10.56,4.76,10.56,10.64v1.52"/>
      <path class="cls-4" d="M21.18,18.8c0-4.2,3.38-7.6,7.54-7.6s7.54,3.4,7.54,7.6v.76"/>
      <path class="cls-4" d="M34.6,24.95c0-5.09,3.88-9.23,8.67-9.23s8.67,4.13,8.67,9.23v.92"/>
      <path class="cls-5" d="M13.63,15.76c3.33,0,6.04-2.72,6.04-6.08s-2.7-6.08-6.04-6.08-6.04,2.72-6.04,6.08,2.7,6.08,6.04,6.08Z"/>
      <path class="cls-5" d="M43.26,15.67c2.75,0,4.97-2.24,4.97-5.01s-2.23-5.01-4.97-5.01-4.97,2.24-4.97,5.01,2.23,5.01,4.97,5.01Z"/>
      <path class="cls-5" d="M28.72,11.2c2.5,0,4.52-2.04,4.52-4.56s-2.03-4.56-4.52-4.56-4.52,2.04-4.52,4.56,2.03,4.56,4.52,4.56Z"/>
    </g>
  </g>
</svg>