<?xml version="1.0" encoding="UTF-8"?>
<svg id="Layer_3" data-name="Layer 3" xmlns="http://www.w3.org/2000/svg" viewBox="0 0 59.37 61.23">
  <defs>
    <style>
      .cls-1 {
        fill: #fffaf4;
      }

      .cls-2 {
        fill: #34bfb1;
      }

      .cls-3 {
        fill: #3d5222;
      }
    </style>
  </defs>
  <path class="cls-1" d="M51.13,24.03c-.66,0-1.27-.44-1.45-1.12,0-.02-.88-2.97-5.26-7.47-4.39-4.51-7.39-5.52-7.42-5.53-.78-.25-1.22-1.1-.97-1.88.25-.79,1.08-1.23,1.86-.98.15.05,3.68,1.17,8.68,6.3,5.01,5.14,5.98,8.65,6.02,8.79.21.8-.27,1.62-1.07,1.83-.13.03-.26.05-.38.05ZM57.87,21.48c-.62,0-1.2-.39-1.42-1.01,0-.02-1.3-3.45-7.23-9.53-5.9-6.05-9.99-7.34-10.03-7.35-.79-.24-1.24-1.07-1.01-1.86.23-.79,1.05-1.24,1.85-1.02.19.06,4.81,1.44,11.33,8.14,6.48,6.65,7.86,10.48,7.91,10.64.27.78-.14,1.64-.93,1.91-.16.06-.33.08-.49.08Z"/>
  <path class="cls-3" d="M38.89,42.11l1.64,1.47-1.64-1.47Z"/>
  <path class="cls-3" d="M40.26,40.75l-1.64-1.47,1.64,1.47Z"/>
  <path class="cls-3" d="M47.57,39.79l-1.13,1.85,1.13-1.85Z"/>
  <path class="cls-3" d="M54.98,52.72l1.65,1.47-1.65-1.47Z"/>
  <path class="cls-3" d="M22.65,25.89l.87-.86-3.29-2.94-.87.86,3.29,2.94Z"/>
  <path class="cls-2" d="M22.79,25.73s0,0,0,0c0-.01,0-.01,0,0Z"/>
  <path class="cls-2" d="M27.83,52.18h0c-2.97-1.76-6.13-4.13-9.37-7.33C6.76,33.26,4.8,23.49,4.55,19.2h0c-.09-1.16-1.14-2.04-2.38-1.97-1.25.06-2.2,1.03-2.14,2.2h0s0,0,0,0c0,0,0,0,0,0h0c.3,5.26,2.68,15.99,15.13,28.33h0c3.49,3.45,6.95,6.06,10.26,8.02h0c1.06.63,2.46.33,3.13-.67.67-1,.35-2.31-.71-2.94Z"/>
  <path class="cls-2" d="M54.49,41.07h0s-5.64-3.05-5.64-3.05l-.14-.07h0c-3.3-1.7-7.48-1.24-10.08,1.33h0s-1.23,1.22-1.23,1.22c-.07.03-.34.1-.9.02-1.22-.18-3.85-1.2-8.18-5.48h0c-4.32-4.27-5.38-6.9-5.58-8.19-.1-.63,0-.95.04-1.06,0-.02.01-.03.02-.04,2.82-2.93,3.82-8.19,1.41-11.4l-3.71,2.46c1.22,1.63.14,4.73-1.14,6.16,0,0,0,0,0,0,0,0,0,0,0,0,0,0,0,0,0,0,0,0-.01.01-.02.02-.01.01-.03.03-.04.04-.03.03-.06.07-.09.1-.07.08-.14.18-.22.29-.16.23-.33.54-.48.92-.3.78-.46,1.81-.26,3.11.4,2.54,2.16,5.95,6.79,10.52h0s0,0,0,0c4.61,4.56,8.09,6.35,10.74,6.76,1.36.21,2.46.04,3.3-.27.41-.15.73-.33.97-.49.12-.08.22-.16.3-.22.04-.03.08-.07.11-.09.02-.01.03-.03.04-.04,0,0,.01-.01.02-.02,0,0,0,0,0,0,0,0,0,0,0,0h0s1.38-1.37,1.38-1.37h0c1.17-1.15,3.12-1.34,4.67-.5l5.64,3.05h0c2.48,1.34,2.97,4.65,1.12,6.48h0s-4.3,4.25-4.3,4.25h0s0,0,0,0c-.84.83-1.73,1.28-2.59,1.36h0c-1.65.15-4.27.19-7.53-.45h0c-1.23-.24-2.43.5-2.69,1.65-.26,1.15.53,2.28,1.76,2.52h0c3.78.74,6.86.71,8.91.52h0c2.26-.21,4.09-1.34,5.43-2.67h0s4.3-4.25,4.3-4.25h0c3.95-3.91,2.8-10.44-2.14-13.12ZM22.66,25.87s0,0,0,0c0,0,0,0,0,0h0s.07-.08.11-.12c0,0,0,.01-.02.02-.01.01-.03.03-.04.05,0,0-.02.02-.03.03,0,0-.01,0-.02.01ZM37.24,40.64h0s0,0,0,0c0,0,0,0,0,0,0,0,.01,0,.02-.01,0,0,.02-.01.02-.02l-.05.05Z"/>
  <g>
    <path class="cls-1" d="M4.45,12.89c-.18-.69-.46-1.18-.71-1.37-.42-.31-.99-.46-1.62-.43-.62.03-1.17.25-1.56.61C.34,11.91-.02,12.62,0,13.14H0l.04.48c.39,5.21,2.81,15.77,14.55,27.88l.23.24h0c3.74,3.71,7.09,6.41,10.64,8.51h0l.63.26c.19.05.39.07.58.07.77,0,1.49-.37,1.92-1.01.54-.81.44-1.87-.23-2.58l-.48-.38h0c-3.19-1.89-6.3-4.37-9.78-7.82h0s-.29-.29-.29-.29C7.06,27.41,4.82,17.52,4.45,12.89"/>
    <path class="cls-1" d="M58.92,41.81c-.36-2.5-1.82-4.7-3.99-6.05l-.44-.25h0s-.02-.01-.02-.01h0s-5.76-3.13-5.76-3.13h0s-.51-.25-.51-.25c-3.08-1.43-6.68-.96-9.18,1.21l-.43.37h.02s-.97.66-.97.66c-.07.02-.35.11-.92.02-1.24-.18-4.04-1.06-8.42-5.2-4.28-4.23-5.34-6.84-5.54-8.13-.1-.62,0-.95.04-1.06l.71-.62h.01s.33-.37.33-.37c2.44-2.74,2.7-6.84.63-9.98l-.28-.42h-.01s-3.82-5.09-3.82-5.09h.02s-.37-.44-.37-.44C18.52,1.31,16.32.2,13.99.02c-2.26-.17-4.44.54-6.12,2l-.43.37c-1.16,1.03-.63,2.39.1,3.05.72.64,2.25.98,3.19-.1l.33-.26c1.57-1.24,3.92-.99,5.33.57l.29.32,3.83,5.15.26.39c.86,1.44.76,3.27-.24,4.55l-.31.35-.85.75h0s0,0,0,0l-.02.02h0s0,0-.01.01c-.01.01-.03.03-.04.04-.03.03-.06.07-.09.1-.07.08-.14.18-.22.29-.16.23-.33.54-.48.92-.3.78-.46,1.81-.26,3.11.39,2.49,2.12,5.84,6.59,10.29l.07.08s.04.04.07.06c.03.03.06.06.09.09h0c4.64,4.37,8.22,5.95,10.91,6.35,1.4.2,2.53.04,3.38-.26.42-.15.75-.32,1-.48.02-.02.04-.03.06-.04h0s1.49-1.08,1.49-1.08l-.02-.02.33-.26c1.06-.84,2.53-1.03,3.84-.48l.4.17v.02s5.77,3.14,5.77,3.14l.4.25c.96.67,1.62,1.72,1.79,2.88.17,1.12-.1,2.2-.77,3.04l-.31.35-4.3,4.28h.01s-.33.3-.33.3c-.6.52-1.21.85-1.83,1l-.43.1v-.02s-.48.03-.48.03c-1.44.1-3.74.11-6.58-.4l-.47-.09-.65-.04c-.99.08-1.83.78-2.04,1.7-.21.94.27,1.9,1.17,2.34l.59.2.51.09c1.98.36,3.93.54,5.82.54.7,0,1.39-.02,2.07-.07l.51-.04h0s.52-.07.52-.07c1.63-.26,3.14-1.01,4.5-2.24l.41-.37h0s4.3-4.29,4.3-4.29l.34-.37c1.58-1.77,2.29-4.16,1.94-6.53ZM22.69,20.09s0,0,0,0c0,0,0,0,0,0h0s.01-.01.01-.01c0,0,0,0,0,0Z"/>
  </g>
</svg>